<?xml version="1.0" encoding="UTF-8"?>
<svg width="313.97" height="297.64" overflow="hidden" preserveAspectRatio="xMinYMin" version="1.1" viewBox=".31085 .31085 313.97 297.64" xmlns="http://www.w3.org/2000/svg" xmlns:cc="http://creativecommons.org/ns#" xmlns:dc="http://purl.org/dc/elements/1.1/" xmlns:rdf="http://www.w3.org/1999/02/22-rdf-syntax-ns#">
 <metadata>
  <rdf:RDF>
   <cc:Work rdf:about="">
    <dc:format>image/svg+xml</dc:format>
    <dc:type rdf:resource="http://purl.org/dc/dcmitype/StillImage"/>
    <dc:title/>
   </cc:Work>
  </rdf:RDF>
 </metadata>
 <rect x="-632.42" y="-599.44" width="1582.6" height="1500.1" r="0" rx="0" ry="0" fill="#fff" fill-opacity="0"/>
 <g fill="#88a4bc" stroke="#fff" stroke-linejoin="round" stroke-width=".59346">
  <path class="sm_state_POL3150" d="m283.74 135.19-0.2512 0.157h-0.5652l-0.9734-0.5966-0.5966-0.1256-0.4082 0.1884-0.471 0.314-0.5024 0.157-0.5338-0.314 0.2512-0.785 0.157-0.2512-0.8792-1.0676-0.5652-0.3454-0.6594 0.3454-0.314-1.1618-0.6908-0.6908-0.942-0.314-2.4178 0.3454-4.867-1.0048-1.6642 0.0942-0.7536-0.1884-0.3768-0.5966-0.5338 0.2198-0.628-0.471-0.5338-0.7536-0.2198-0.5652 0.1884-1.6956-0.0942-0.2512-0.4396-0.0628-0.2512-0.2512-0.157-0.4082-0.0942-0.6594 0.0314-0.471 0.2198-0.8164-0.0628-0.5024-0.2198-0.314-0.6908-0.5966-0.6594-0.9106-1.727-1.8526 0.0942-1.1304-0.1256-1.9154-0.3768-1.8212-0.1884-2.7004-0.471-2.4178-1.8212 0.5024-1.7584 0.8792-0.9734-0.6908-0.785-1.099 0.471-2.8574-1.5072-1.1618-1.5386 1.6956-2.3864 0.3768-2.2294-1.1618-0.8164-1.5386-0.4396-1.884-0.471-1.2874-0.7536-0.8164-1.1932-0.6594-0.785-1.413-0.157-1.3188 0.5338-0.942-1.4444-1.1304-1.727-0.2512-1.6642-0.8792-1.1304-2.2294-1.7584-4.396-0.785-6.0288-0.5024-2.0724-0.7222-1.6956-0.4082-1.8212 2.2922-1.0048 4.4588 0.2826 1.9782-0.6908 0.9106-0.7536 0.9734-0.4082 2.355-0.3454 5.4008-3.7366 3.0144-3.4226 8.7292-5.4322 1.7898-1.9154 1.099-3.0772 1.256-2.4492 0.1256-2.4806-3.3284-4.6472-1.57-1.57-0.3454-1.4758-0.157-1.6014-3.1714-4.239 2.9516-4.1762 6.9708-0.9734 2.0724-1.413 1.7898-1.884 0.785-2.6062-0.0942-0.4082 0.8478-0.4396 0.6594 0.0942 1.8526 0.9734 0.3454 0.0314 0.7222-0.157 0.314 0.0942 0.3454 0.3454 0.314 0.8164 0.1884 0.3454 0.3454 0.2512 1.0676 0.1256 0.2198 0.2826-0.314 1.1304v0.5652l0.5652 0.785h0.7222l0.7536-0.314 0.628-0.1256 0.5652 0.2512 1.9468 1.6328 1.1932 0.7536 2.512 0.942 1.1932 1.0362 0.314 0.471 0.5652 1.099 0.2826 0.4082 0.3454 0.2198 0.6594 0.1884 0.2826 0.157 0.5338 0.785 0.4082 1.0676 0.3454 1.1932 0.2512 1.1304 0.471 2.4806v1.2246l-0.471 0.8164-0.3768 0.314-0.314 0.4396-0.0314 0.5652 0.1256 0.471 0.2512 0.4082 0.3454 0.2826 0.2826 0.5024-0.157 0.5966 0.0314 1.5386 0.3454 1.3188 0.4082 1.2246 0.314 1.3188 0.2826 2.826 0.3454 1.099 0.7536 1.099 0.0628 3.2656 0.7536 3.6738 2.6376 8.1954 1.4758 3.0772 0.628 1.6642 1.256 4.9298 0.5652 1.5072 0.5652 0.7536 0.314 0.7222 0.2198 0.785 0.3768 0.785 0.5652 0.628 0.5338 0.4082 0.314 0.628-0.0628 1.2874-0.2826 0.7536-0.3768 0.628-0.2826 0.6908-0.0628 1.0362 0.2826 0.8792 0.942 1.2246 0.3454 0.7536 0.0628 0.4082-0.0628 0.9734 0.2512 1.4444-0.0628 0.7222-0.3454 0.6908-0.0942 0.4082 0.0314 0.5652 0.2198 0.5652 0.0942 0.4082 0.314 7.8186-0.4082 2.2294-1.256 1.5386-4.1448 2.826-5.2438 1.5072-2.7632 1.6328-2.7632 2.2922-3.7994 5.8718-1.256 1.5386-0.5652 0.9106-1.4758 2.983z"/>
  <path class="sm_state_POL3139" d="m272.31 24.691 0.0942 0.4082-0.785 2.6062-1.7898 1.884-2.0724 1.413-6.9708 0.9734-2.9516 4.1762 3.1714 4.239 0.157 1.6014 0.3454 1.4758 1.57 1.57 3.3284 4.6472-0.1256 2.4806-1.256 2.4492-1.099 3.0772-1.7898 1.9154-8.7292 5.4322-3.0144 3.4226-5.4008 3.7366-2.355 0.3454-0.9734 0.4082-0.9106 0.7536-1.9782 0.6908-4.4588-0.2826-2.2922 1.0048-3.768 0.314-0.785 0.4082-0.8792 1.7584-1.2874 0.9106-1.413 0.2198-2.7946-0.2512-2.355 2.826-2.826 0.9106h-2.983l-2.2922 1.3188-1.9782 0.4082-2.2608-0.0314-1.1304 0.9106-1.0362 1.256-4.3646 2.5434-1.1618 0.314-1.1932-0.1256-0.9734 0.785-0.5024 1.7584-0.8164 0.942-0.942 0.471-2.355 0.4396-9.891-1.5386-0.2826-0.314-0.1884-0.471-0.5024-0.3454-0.5338-0.0942-1.2246 0.3768-0.8164 1.6014-0.9106 0.7536-1.0676 0.2826-0.471-4.7728-1.6014-4.082-1.7584-1.2246-3.5796-0.942-3.3284-2.041-2.3864-0.785-0.5966-0.0314-0.7536-0.314-0.471-0.6908-0.942-1.8212-0.785-2.2294-2.7004-5.3066 4.6158-8.635 1.099-1.1932 1.3188-0.8478 2.512 0.1884 1.7584-0.785 0.0628-0.8478 0.3768-0.5966 0.5024-1.5072 0.5652-0.5966 0.3768-0.6908v-0.8792l0.1256-0.8792-1.57-0.4082-3.0772 0.2512-1.1304-0.5652 0.628-2.0724-0.8164-1.1304-1.6014-0.1884-1.5072-0.9106-1.0676-1.727-0.5652-2.2922-0.0942-1.0362 0.5024-0.7536 1.3816-1.3816 0.471-0.8792 0.3768-0.9734-0.3454-1.3502-0.628-1.1304-0.6908-2.041 0.2198-1.8212 0.7536-0.8792 2.7632 0.3454 0.7536-0.0942-0.1256 0.5024-0.2826 0.4082-0.1256 0.2512-0.1256 0.6594v0.785l0.4396-0.5024 0.5338-1.3816 0.3768-0.471 0.785-1.2874 0.8164-0.785 0.628-0.314 0.1884-0.0628 2.4178-1.5386 0.5338-0.2198 1.2246-0.157 2.0096-1.5072 0.4396-0.157 0.4396-0.0628 0.1884-0.1884 0.1256-0.2512 0.2512-0.6908 0.314-0.314 0.2512-0.1884-0.0314-0.2826-0.1256-0.6594 0.471-0.0314 18.589 0.9734 18.055 0.9734 11.178 0.5966 13.565 0.7222 17.396 0.942 13.188 0.6908 2.1352-0.7222 0.5966-0.471z"/>
  <path class="sm_state_POL3152" d="m298.81 233.22-0.4396 0.6908-2.4806 2.7004-0.9106 0.7222-3.1086 2.4178-7.1592 7.7872-0.942 1.4444-1.1304 0.9106-1.256 1.3816-3.3912 4.9926-1.2874 1.3502-0.1884 0.3768-0.2512 1.0048-0.1256 0.3454-0.2826 0.2512-0.5652 0.2198-0.2512 0.1884-0.314 0.3768-1.9154 3.4854-0.5338 0.5338-0.3454 0.157-0.6594 0.1256-0.3768 0.314-0.2198 0.4082-0.5338 1.5386-2.3864 3.2028-0.7536 1.8526 0.5966 1.727 0.1884 0.7222 0.2198 2.041 0.1884 0.8164 0.4082 0.628 0.6908 0.7222 0.157 0.3768 0.157 0.7536 0.4082 4.396-0.1256 0.7222-0.5024 1.4444-0.471 1.6956-0.471 1.0362-0.1884 0.5966 0.3454 0.157 0.4082-0.5338 0.3454 0.4082 1.0048 0.6908 0.9106 1.2246 0.5966 0.4396 1.3816 0.785 0.3768 0.471v0.4082l-0.2826 0.942-0.0314 0.628 0.1256 0.471 0.628 1.1304-0.3768 0.7536-0.628-0.2826-0.6908-0.628-0.9106-0.4082-0.5652-0.785-0.314-0.314-0.3454-0.0314-0.7222 0.2198-1.1304-0.0942-0.6594 0.0628-0.6594-0.0942-0.785-0.5024-1.1618-1.3188-0.628-0.1884-0.6594 0.628-1.099-0.5338-2.4492-0.0942-1.1304-0.3768-1.6014-1.57-0.6594-0.2826-1.727 0.0628-1.4758-0.4396-0.2198-0.1884-0.0628-0.314 0.0628-0.6594-0.3454-0.3768-0.2512-0.0314-0.7536 0.0942-0.6594-0.1884-1.0362-0.6594-2.198-0.4396-0.8792-0.628-0.2198-1.5386-0.4082-1.6956-0.8792-1.4444-1.1304-1.0676-1.6956-0.8478-1.1304-1.0676-0.5652-0.314-0.6594 0.0942-0.5338 0.5024-0.4396 0.5338-0.314 0.2198-0.5024-0.3768-1.0362-1.6328-0.5338-0.5338-0.314-0.0942-0.471 0.0942-0.5652-0.2512-0.5652-0.5652-0.314-0.2198-0.5966-0.157-2.2294 0.2512-0.471 0.1884-1.1932-3.3284-0.5652-3.5168 0.1884-1.6956-0.1256-1.6956-1.0676-3.3598-1.884-2.041-3.3598-1.4444-0.942-0.8478 0.5338-1.2246 3.1086-2.3864-0.4082-1.413-1.1618-0.628-0.9106-0.0628-0.6594-0.785-0.2512-0.6908-0.2826-0.5338 0.0314-1.884 0.2512-2.1666-0.8478-7.3476 0.2198-2.7632 1.1618-2.0096 0.942-2.3236 0.3454-4.1134 0.1256-0.0628 1.9154-1.6642 0.5966 0.2512 0.785-0.157 0.785-0.471 0.5966-0.628-0.4082-1.0048 2.983-1.3502 2.0096-0.5024 0.5652-0.5024 0.9734-1.1618 0.3768-0.7536 0.157-0.9734 0.2198-0.7536 1.5072-1.7584 0.8792-1.5072 0.5338-0.4082 0.8164-0.1256 0.5652-0.2826 0.471-0.7536 0.3768-0.8792 0.2198-0.785 0.2512-1.9468-0.0314-1.8212-0.0942-0.6594 4.1448 2.7946 2.3236 0.1256 2.0724-1.4444 1.2246-0.0628 1.2246 0.471 1.099 0.6908 1.0048 0.8792-0.4396 1.256-1.4444 2.669 0.5966 1.0362 7.2848 1.8526 4.9298 2.6376 0.2826 0.471-0.0314 0.6594 0.0942 0.6908 0.7222 1.3816 0.3768 1.1932-0.8792 0.5024-0.9734-0.1256-0.9734 0.314-0.785 1.0362-0.5024 1.0362 0.2198 1.2246 0.8164 1.256 1.099 0.5024 4.3646-0.8792 0.8164 0.5966-0.471 0.2826-1.0676 0.2512 0.314 0.7222 4.2704 1.2246 7.0336 0.2198 2.355-0.5024 2.041-1.6328 2.5748-2.9202 0.8164-0.3768 1.7898-0.157 2.2922 0.2512 1.9782 1.256 1.0048 1.5386z"/>
  <path class="sm_state_POL3151" d="m283.74 135.19 0.2198 0.1884 0.3454 0.5024 0.0942 0.6594-0.2512 0.9106 0.7222 0.471 2.2294 0.5966 0.5024-0.1884 0.4082 0.4082 1.9468 0.7536 0.6594 0.0628v0.314l-0.2512 0.471 0.5338-0.0942 0.4082 0.1884 0.2826 0.2826 0.2826 0.0628 0.4396-0.5338 0.1256 0.2198 0.5024 0.5024 0.5338-0.5024 0.1256 0.3768-0.0942 0.628-0.1256 0.157 0.8792 1.7584 0.5966 0.1884 1.4758-0.0314 0.5966 0.3454 0.5652 1.1304 0.6594 0.4082 0.1256 0.5652 0.0314 0.5966 0.2826 0.628 0.4396 1.9154 0.3454 0.8792-0.5024 0.3768-0.4082 0.628-0.5652 1.413-0.2198 0.942-0.0314 1.6328-0.1884 0.5966 0.2198 0.3454-0.3768 0.1884-0.1256 1.099-0.3454 0.4396 0.471 0.9106 0.5966 0.785-0.3768 1.1618-0.5966 0.5966-0.6594 0.4082-0.5338 0.628-0.2512 0.9106-0.157 1.1618 0.314 0.5966 0.0628 0.314-0.4082 0.2826 0.0942 0.3454 0.3454 0.5652-0.3768 0.5024-0.471 0.1256v0.3768l0.3454 0.4082 0.0314 0.471-0.157 1.3816 0.1256 0.7222 0.2512 0.6908 0.6908 1.1932h-0.4396l0.4082 0.785 0.5024 0.1884 0.4082 0.2512 0.1884 0.9734 0.2198 0.7222 0.471 0.3454 0.5652 0.1884 0.4396 0.314-0.471 1.0048 0.0314 0.314 1.2874 1.884 0.2512 0.5966-0.3454 0.1884-0.2198 0.3454-0.0628 0.5024 0.1884 0.6908-0.5652 0.2198-0.5338 0.5966-0.4396 0.7222-0.157 0.6908 0.1884 1.0362 0.5024 0.2826h0.5966l0.5338 0.3454 1.727 3.7994 0.7222 0.8792 1.57 1.0048 1.5072 1.5072 0.3454 0.628-0.5338 0.2512-0.1256 0.471 0.471 0.9734 0.8164 1.2874 0.2826 0.6594 0.3768 2.0724-0.157 0.7222 0.2512 0.1884 0.785 0.4396 0.3454 0.5338 0.0942 0.8478 0.1884 0.6594 0.471 0.7536 2.1038 1.9782 2.6062 1.4444 0.4082 0.628-0.3768 0.8478-0.9734 0.1884-1.0362 0.0314-0.628 0.2826-0.8164-0.471-0.8792 0.0942-0.7222 0.5652-0.3768 0.8478 0.0628 0.942 0.471 0.628 0.7222 0.3454 0.8792 0.1256v0.2826l-0.4082 0.8792 0.4396 0.7536 0.8478 0.5338 0.8478 0.2198-0.1884 1.099 0.2512 1.0676 0.785 1.9154-0.7222 1.256 0.314 2.355 0.3454 0.9106-0.3768 0.5652-0.5966 0.628-2.0096 1.0362-0.0942 0.5966 0.0628 0.942-0.0628 0.6594-0.1256 0.5338-0.6908 1.6014-1.6642 0.6908-5.652 0.0628-1.0676 0.3454-0.5652 0.2826-0.4082 0.4082-0.3454 0.7222-0.4082 1.3188-3.14-1.8526-1.0048-1.5386-1.9782-1.256-2.2922-0.2512-1.7898 0.157-0.8164 0.3768-2.5748 2.9202-2.041 1.6328-2.355 0.5024-7.0336-0.2198-4.2704-1.2246-0.314-0.7222 1.0676-0.2512 0.471-0.2826-0.8164-0.5966-4.3646 0.8792-1.099-0.5024-0.8164-1.256-0.2198-1.2246 0.5024-1.0362 0.785-1.0362 0.9734-0.314 0.9734 0.1256 0.8792-0.5024-0.3768-1.1932-0.7222-1.3816-0.0942-0.6908 0.0314-0.6594-0.2826-0.471-4.9298-2.6376-7.2848-1.8526-0.5966-1.0362 1.4444-2.669 0.4396-1.256-1.0048-0.8792-1.099-0.6908-1.2246-0.471-1.2246 0.0628-2.0724 1.4444-2.3236-0.1256-4.1448-2.7946-0.157-1.0676-0.785-3.0458-0.1256-0.628-0.314-0.2198-0.0314-0.5966 0.2198-0.4082 0.2198-2.1352-0.0942-0.9734-0.5652-0.4396v-0.3454l0.471-0.157 0.3768-0.5024-0.1256-0.6908-0.7536-1.9154-0.2512-1.6014-0.2826-0.8792-0.0628-0.4082 0.0314-0.5652 0.3768-1.1618 0.5652-3.1086 0.4082-0.785 0.2826-0.2512 0.3454-0.0628-0.0628-1.0362 0.3768-1.5386 0.1884-1.413-1.256-1.5072 0.0628-1.2246 0.7536-0.5966 0.7536-1.0676 0.0314-2.041-0.9734-0.0942v-0.3454l0.471-0.5652-0.0942-0.628-0.5652-0.8792-0.0628-0.6908 0.0314-0.5966-0.1256-0.4396-0.471-0.314-0.314-0.0314-0.7536 0.3454-0.5652 0.0314-1.6014-0.314-0.8792-0.4082-0.4396-0.5652-0.4082-0.6594-0.0314-0.5338 0.314-1.2874 1.1304-0.2826 1.1304 0.4396 2.2608 0.3768 2.2294-0.785 0.785-0.7536 0.1884-1.1618-1.57-2.4178 1.1932-1.6956 1.727-1.0676-1.099-1.6642-0.7536-1.884-0.1256-1.3502-0.628-1.3188-0.5024-1.413-0.1884-1.2874 2.2294-1.6642 2.3864-0.6908 4.5216 0.0314 4.2704-0.8478 1.6014 0.2826 1.099-0.3454 2.983-2.2294 1.1932-0.157 3.454 0.3454 1.727-1.4444 0.157-0.7536 0.1884-0.628 0.5338-0.5652 0.5652-0.3768 1.256 0.2826 3.6738 1.9154 1.2246-0.471 1.0362-1.3188 0.8792-2.1038 2.983-4.396 1.0048-1.884 0.4082-0.1884 0.5966 0.1256 0.9734 0.5966h0.5652z"/>
  <path class="sm_state_POL3167" d="m126.52 193.22 0.7222 1.256 0.9106 0.7536 7.0022 1.7898 2.198-0.0628 0.4082-0.3454 0.2826-0.5338 0.3768-0.1884 0.8478 1.0048 0.7222 1.4444 2.355 1.884-1.0676 3.8308-0.4082 0.471-0.2198 0.7536 0.1884 1.1304 0.4082 0.9106-0.2198 1.7584-2.4492 1.6014-0.8164 1.7584-0.5652 3.0772-0.7536 2.041 0.5966 1.8526 0.8478 1.1304 1.0048 0.785 1.0048 1.0676 0.3454 1.7898-4.5216-0.0314-0.942 0.2198-0.4082 1.099 0.3454 0.8478-0.0628 0.9106-0.6908 0.314-0.6594 0.1256-0.2826 1.0048 0.5338 6.3114-0.0314 2.4806-0.3454 1.4444-3.0144 1.413-1.884 1.413-3.925 0.8478-1.884 3.6424-0.0314 0.8164-0.5338-0.1256 0.157 1.099 0.157 0.0628 0.5024-0.0628 0.2198 0.3454 0.0628 0.471-0.157 0.2198-1.0048 0.314-1.256 0.0314-0.5652 0.157-0.942 0.8164-1.1304 0.3454-1.1304-0.2512-2.041-2.0096-0.3454-0.5024-0.2512-0.5652-0.3768-1.1618-0.628-0.6908-0.1256-0.2826 0.4082-0.6908-0.4396-0.0942-0.8478-0.4082-0.4082-0.1256-0.9106 0.2826-0.5024-0.2198-1.5072-1.9154-0.0628-0.3768 0.2198-0.471 0.3454-0.1884 1.5072-0.0628 0.8478-0.314 1.3188-0.8164 0.628-0.5338 0.2826-0.7536-0.471-0.8792-0.3454-0.3454-0.0628-0.5024 0.0628-0.4396 0.4082-1.0676v-0.2826l-0.628-0.8792-0.1884-0.157-0.5338-0.2198-0.1884 0.1256-0.2512 0.7536-0.942 1.2874-0.5338 0.4396-0.7222 0.1884-2.7946-0.5024-1.5072 0.1256-0.9106 1.1304-0.314 0.157-0.3454-0.157-0.2826-0.9106-0.6908-0.5652-0.6908 0.0628-0.3454 0.9106-0.4082-0.314-0.2198-0.5024-0.0628-0.628 0.0628-0.6594-0.471-0.5966 0.5652-0.2512-0.6594-0.2512-1.4444 0.0314-0.7536-0.2198-1.099-0.6908-0.314-0.3454-0.1884-0.4082-0.2826-1.1618-0.314-0.2512-0.942 0.1884h-0.4396l-0.4082-0.2198-0.7222-0.628-0.3454-0.1884-3.2028-0.9106-0.7222 0.0942-0.471-0.2826 0.1256-0.5966 2.2608-5.6206 1.6328-1.256 1.9154-0.314 1.099-1.9468 0.7222-2.7632 2.2608-4.3018 2.6062-3.8622 1.1304-2.6062 1.4758-1.9468 1.0048-0.6594 0.5024-1.5072 0.1884-1.2874 0.314-1.2246 1.8212-4.1762 0.8164-0.8792 1.0362-0.3454 1.0676 0.0628 1.099-0.2512 1.0362-0.6594 1.0676-0.0628 1.0362 0.5338 0.4082 1.099 0.1884 1.1932 1.6328 1.3502 2.0096 0.0942 3.7052-1.3502z"/>
  <path class="sm_state_POL3170" d="m224.9 229.11-0.3454 4.1134-0.942 2.3236-1.1618 2.0096-0.2198 2.7632 0.8478 7.3476-0.2512 2.1666-0.0314 1.884 0.2826 0.5338 0.2512 0.6908 0.6594 0.785 0.9106 0.0628 1.1618 0.628 0.4082 1.413-3.1086 2.3864-0.5338 1.2246 0.942 0.8478 3.3598 1.4444 1.884 2.041 1.0676 3.3598 0.1256 1.6956-0.1884 1.6956 0.5652 3.5168 1.1932 3.3284-0.5966 0.2512-0.4396-0.1256-1.1618 0.2512h-0.5338l-3.0458-0.8792-1.7584-0.942-0.4082-0.0942-0.5652 0.4082-0.9734 1.4444-0.5652 0.5024-0.6594 0.0942-0.471-0.314-0.4396-0.5024-0.5652-0.3768-0.5024-0.0628-1.256 0.2512-0.5024 0.2512-0.628 0.6908 0.3768 0.4396 0.7222 0.4396 0.4082 0.7222-0.2826 0.4396-0.5652 0.1256h-0.6594l-0.5024 0.1256-0.628 0.628-1.0362 1.4758-0.6594 0.5966-0.7536 0.2826-0.5652-0.1256-0.5024-0.3768-0.5024-0.5338-0.5966-0.4396-0.5024-0.0628-0.5338 0.0314-0.6908-0.0942-0.5024-0.3768-2.7632-3.3284-0.5024-0.0942-1.1618 0.1884-0.9734-0.0628-0.314 0.1884-0.5024 0.5966-0.3454 0.3454-0.7536 0.2512-0.6908-0.157-2.6376-1.3502-0.5024 0.1256 0.0314 0.8164-1.6328 0.0628-1.2874-0.5024-0.3768 0.0314-0.314 0.2198-0.0942 0.314-0.2512 1.1304-0.2198 0.6594-0.157 0.2198-2.4178 0.2198-0.471 0.2512-0.6594 0.8164-0.314 0.2826-0.6908-0.0628-0.2512 0.157-0.5966 1.3502-0.4082 1.099-0.3768 0.471-0.1884 1.6642-0.314 1.1932-0.628 0.471-1.0362-0.5024-1.6014-1.5072-0.8792-0.471-1.0048 0.1256-0.5652 0.4082-1.0362 1.099-0.6908 0.2512-1.4444-0.0942-0.785-0.314-0.4082-0.5338 0.1256-0.6594 1.1932-1.9154 0.5024-0.2826 0.0314-0.471-0.314-0.4082-0.4396-0.314-0.0942-0.3768 0.2826-0.5338-0.157-2.3236-0.1884-0.8164-0.2826-0.9106-0.2826-0.2198-1.0362 0.4396-0.628 0.0628-0.6908-0.0628-1.7898-0.628 0.0628-0.5966-0.0314-0.7222 0.1884-0.5652-1.256-0.0314-0.628-0.157-0.5338-0.4396-0.1884-0.3454-0.5024-1.5072-0.5652-2.4492-0.3768-0.9734-0.7222-0.471-0.2512-0.2512-0.5024-0.942-0.2826-0.1256-0.157-0.5338-0.7536-0.5024-0.3768-0.8792 0.2512-1.0048 0.5338-1.099 0.1256-1.256-2.1352-0.3768-1.1618-0.5338-1.0048-0.942-0.471-1.5072-0.6594-1.1618-1.57-0.628-0.942-1.6642-0.0628-1.6328-0.6908-0.8478-0.8164-0.0942-0.628-0.8164 0.3454-1.6328 0.6908-1.413 0.6908-1.0362 7.4104-8.3524-1.4444-2.0096-1.6642-1.6642 0.9734-0.7536 2.1038 0.2826 1.3502-1.9468 0.8792-1.7584 0.8478-1.256 1.727 1.0048h0.785l0.8164-0.1884 2.7632-2.1352 1.727-0.2826 1.727 0.157 1.0048-0.157 3.9564-2.512-0.0942-0.8792-0.1884-1.0676 2.9516 0.0314 1.2246 0.6594 1.0362 1.099 2.6376 0.8164 2.4178 1.6328 1.413 2.826 0.5338 2.2608 0.5338 1.1304 1.413 2.0096 0.5966 1.256 2.2922 1.3816 4.1134 0.0942 0.942-0.9734 0.1256-0.5338 0.3768-0.5966 1.0048-0.5024 0.4396-0.4082 0.1256-0.785 0.2512-0.3454 0.3768-0.0628 0.6594-0.6594 0.1884-0.8478 0.2198-0.314 1.1932 1.1618 0.5024-0.2512 0.4396-0.4396 0.4082-0.2826 0.5024 0.314 0.4082-0.2826 0.8478-0.0628 0.314-0.1884 0.5652-0.628 0.314-0.1256 2.3236-0.0628 0.471-0.1256 0.942-0.8792 1.2874-0.628 0.314-0.0628 0.4396 0.157 0.5966 0.6594 0.5652-0.2198 0.5338-0.7536 0.5024-0.2826 0.0314-0.4082 0.1884-0.2512 0.3454-0.1884 0.3768-0.3454 0.157-0.6908 0.314 0.2512h0.1884l0.3768-0.2512-0.0314-0.5966z"/>
  <path class="sm_state_POL3149" d="m241.16 197.23 0.1256 0.6908-0.3768 0.5024-0.471 0.157v0.3454l0.5652 0.4396 0.0942 0.9734-0.2198 2.1352-0.2198 0.4082 0.0314 0.5966 0.314 0.2198 0.1256 0.628 0.785 3.0458 0.157 1.0676 0.0942 0.6594 0.0314 1.8212-0.2512 1.9468-0.2198 0.785-0.3768 0.8792-0.471 0.7536-0.5652 0.2826-0.8164 0.1256-0.5338 0.4082-0.8792 1.5072-1.5072 1.7584-0.2198 0.7536-0.157 0.9734-0.3768 0.7536-0.9734 1.1618-0.5652 0.5024-2.0096 0.5024-2.983 1.3502 0.4082 1.0048-0.5966 0.628-0.785 0.471-0.785 0.157-0.5966-0.2512-1.9154 1.6642-0.1256 0.0628-0.5652 0.0628 0.0314 0.5966-0.3768 0.2512h-0.1884l-0.314-0.2512-0.157 0.6908-0.3768 0.3454-0.3454 0.1884-0.1884 0.2512-0.0314 0.4082-0.5024 0.2826-0.5338 0.7536-0.5652 0.2198-0.5966-0.6594-0.4396-0.157-0.314 0.0628-1.2874 0.628-0.942 0.8792-0.471 0.1256-2.3236 0.0628-0.314 0.1256-0.5652 0.628-0.314 0.1884-0.8478 0.0628-0.4082 0.2826-0.5024-0.314-0.4082 0.2826-0.4396 0.4396-0.5024 0.2512-1.1932-1.1618-0.2198 0.314-0.1884 0.8478-0.6594 0.6594-0.3768 0.0628-0.2512 0.3454-0.1256 0.785-0.4396 0.4082-1.0048 0.5024-0.3768 0.5966-0.1256 0.5338-0.942 0.9734-4.1134-0.0942-2.2922-1.3816-0.5966-1.256-1.413-2.0096-0.5338-1.1304-0.5338-2.2608-1.413-2.826-2.4178-1.6328-2.6376-0.8164-1.0362-1.099-1.2246-0.6594-2.9516-0.0314-0.8792-0.3454-2.1352-0.314-1.099-0.5652 0.628-1.3502 2.1666-1.8212 1.256-0.1884-1.5072-1.8212-0.8478-1.9468-1.099-0.8478-2.355-0.6594-0.8478-1.0362 1.1618-2.2294 2.1352-0.3454 0.157-0.4082v-0.5966l-0.1256-0.5652-0.3768-0.2198-2.669-0.5024 0.7222-1.2246 0.9106-0.8478 1.0676-0.7222 0.5338-1.5072-0.1256-1.5386 0.0314-1.6014 0.4082-1.6014 1.099-0.1884 4.1134 3.0144 0.7222-0.8478 0.2512-1.6014-0.314-1.6642-0.9734-0.785-1.413-2.1666 0.785-3.0144 0.7536-1.0048 0.9734-0.3768 3.454 0.5024 1.0048-0.2826 2.1666-2.0724 1.0048-0.5024 1.0362-0.157 1.0362-0.471 1.1618-2.8574 0.8792-0.6594 1.727 0.628 0.942 2.355 5.1496 3.1714 0.7222 0.8164 0.6594 1.0676 0.8164 0.5966 3.768 0.785 4.3646-0.6908 1.0362-0.5966 0.9106-1.256 0.9734-0.942 0.942 0.314 0.2826 1.6956 0.942 1.0362 0.1256 0.8478 0.1884 0.7536 2.1352 1.3816 2.4178 0.2198 5.181 1.6328z"/>
  <path class="sm_state_POL3148" d="m280.95 134.81-1.0048 1.884-2.983 4.396-0.8792 2.1038-1.0362 1.3188-1.2246 0.471-3.6738-1.9154-1.256-0.2826-0.5652 0.3768-0.5338 0.5652-0.1884 0.628-0.157 0.7536-1.727 1.4444-3.454-0.3454-1.1932 0.157-2.983 2.2294-1.099 0.3454-1.6014-0.2826-4.2704 0.8478-4.5216-0.0314-2.3864 0.6908-2.2294 1.6642 0.1884 1.2874 0.5024 1.413 0.628 1.3188 0.1256 1.3502 0.7536 1.884 1.099 1.6642-1.727 1.0676-1.1932 1.6956 1.57 2.4178-0.1884 1.1618-0.785 0.7536-2.2294 0.785-2.2608-0.3768-1.1304-0.4396-1.1304 0.2826-0.314 1.2874 0.0314 0.5338 0.4082 0.6594 0.4396 0.5652 0.8792 0.4082 1.6014 0.314 0.5652-0.0314 0.7536-0.3454 0.314 0.0314 0.471 0.314 0.1256 0.4396-0.0314 0.5966 0.0628 0.6908 0.5652 0.8792 0.0942 0.628-0.471 0.5652v0.3454l0.9734 0.0942-0.0314 2.041-0.7536 1.0676-0.7536 0.5966-0.0628 1.2246 1.256 1.5072-0.1884 1.413-0.3768 1.5386 0.0628 1.0362-0.3454 0.0628-0.2826 0.2512-0.4082 0.785-0.5652 3.1086-0.3768 1.1618-0.0314 0.5652 0.0628 0.4082 0.2826 0.8792 0.2512 1.6014 0.7536 1.9154-9.9852 2.1038-5.181-1.6328-2.4178-0.2198-2.1352-1.3816-0.1884-0.7536-0.1256-0.8478-0.942-1.0362-0.2826-1.6956-0.942-0.314-0.9734 0.942-0.9106 1.256-1.0362 0.5966-4.3646 0.6908-3.768-0.785-0.8164-0.5966-0.6594-1.0676-0.7222-0.8164-5.1496-3.1714-0.942-2.355-1.727-0.628-0.0942-1.4758 0.4082-1.3502 2.0096-1.884 0.5024-1.3816v-1.6328l-0.4082-0.4396-1.1304-0.5652-0.2512-0.8164-0.1256-1.6014-0.2826-1.5386-0.942-2.2294 0.8164-2.8574h2.4492l1.8526 1.0362 2.2922 0.314 0.3768-0.8478 0.0942-1.1932-0.471-1.2874-1.6956-1.7584-0.2826-1.4444 0.157-0.628 0.314-0.471 0.2826-0.5966-0.1884-0.8164-1.8526-2.4806-2.2608-1.7584-2.0724-0.942-3.3284 0.3768-1.1304-0.3768-0.2826-0.8164 0.0942-0.942-0.7536-1.1304-0.8478-0.9734-0.2512-1.0676 1.0362-0.628 0.3454-2.5434-0.4396-0.5338-1.2246-0.8164-2.1352-0.8792-0.5024 0.1256-0.4396-0.2512-0.628-1.413-0.1256-1.7898-0.3768-1.3188-0.8792-0.5966-1.099-0.314-0.9734-0.5338-0.7536-1.2874-0.8478-1.099-1.1618 0.0942-1.0048 1.0362-6.4998 1.3502-2.8888-2.355-1.6014-0.7536-3.297-0.6908-3.0144-2.0724 0.1884-0.8792 0.1256-0.8792 2.3236-3.8308-0.1256-0.942-0.6594-0.6594 0.1884-1.9782 0.8164-1.6956 2.1038-6.123 1.3502-0.3768-0.0314-1.6956-0.9106-2.198-0.5024-0.9734-0.3454-1.0676 0.2512-1.0676 0.628-0.6908 0.157-1.9154-0.471-2.1038 1.5072 0.1884 1.3188-1.099 0.5652-0.8792 0.6908-0.6594 0.5966 0.2512 0.5652 0.4082 0.5966 0.0942 0.314-0.8792 0.157-1.0362 0.0942-1.0048-0.2512-1.5386-0.0314-1.0362-0.1884-0.9734 1.6014-0.7536 1.5072-1.2246 1.0676-0.2826 0.9106-0.7536 0.8164-1.6014 1.2246-0.3768 0.5338 0.0942 0.5024 0.3454 0.1884 0.471 0.2826 0.314 9.891 1.5386 2.355-0.4396 0.942-0.471 0.8164-0.942 0.5024-1.7584 0.9734-0.785 1.1932 0.1256 1.1618-0.314 4.3646-2.5434 1.0362-1.256 1.1304-0.9106 2.2608 0.0314 1.9782-0.4082 2.2922-1.3188h2.983l2.826-0.9106 2.355-2.826 2.7946 0.2512 1.413-0.2198 1.2874-0.9106 0.8792-1.7584 0.785-0.4082 3.768-0.314 0.4082 1.8212 0.7222 1.6956 0.5024 2.0724 0.785 6.0288 1.7584 4.396 1.1304 2.2294 1.6642 0.8792 1.727 0.2512 1.4444 1.1304-0.5338 0.942 0.157 1.3188 0.785 1.413 1.1932 0.6594 0.7536 0.8164 0.471 1.2874 0.4396 1.884 0.8164 1.5386 2.2294 1.1618 2.3864-0.3768 1.5386-1.6956 1.5072 1.1618-0.471 2.8574 0.785 1.099 0.9734 0.6908 1.7584-0.8792 1.8212-0.5024 0.471 2.4178 0.1884 2.7004 0.3768 1.8212 0.1256 1.9154-0.0942 1.1304 1.727 1.8526 0.6594 0.9106 0.6908 0.5966 0.2198 0.314 0.0628 0.5024-0.2198 0.8164-0.0314 0.471 0.0942 0.6594 0.157 0.4082 0.2512 0.2512 0.4396 0.0628 0.0942 0.2512-0.1884 1.6956 0.2198 0.5652 0.5338 0.7536 0.628 0.471 0.5338-0.2198 0.3768 0.5966 0.7536 0.1884 1.6642-0.0942 4.867 1.0048 2.4178-0.3454 0.942 0.314 0.6908 0.6908 0.314 1.1618 0.6594-0.3454 0.5652 0.3454 0.8792 1.0676-0.157 0.2512-0.2512 0.785 0.5338 0.314 0.5024-0.157z"/>
  <path class="sm_state_POL3145" d="m157.14 69.217 2.7004 5.3066 0.785 2.2294 0.942 1.8212 0.471 0.6908 0.7536 0.314 0.5966 0.0314 2.3864 0.785 3.3284 2.041 3.5796 0.942 1.7584 1.2246 1.6014 4.082 0.471 4.7728-1.5072 1.2246-1.6014 0.7536 0.1884 0.9734 0.0314 1.0362 0.2512 1.5386-0.0942 1.0048-0.157 1.0362-0.314 0.8792-0.5966-0.0942-0.5652-0.4082-0.5966-0.2512-0.6908 0.6594-0.5652 0.8792-1.3188 1.099-1.5072-0.1884 0.471 2.1038-0.157 1.9154-0.628 0.6908-0.2512 1.0676 0.3454 1.0676 0.5024 0.9734 0.9106 2.198 0.0314 1.6956-1.3502 0.3768-2.1038 6.123-0.8164 1.6956-0.1884 1.9782 0.6594 0.6594 0.1256 0.942-2.3236 3.8308-0.1256 0.8792-0.1884 0.8792-0.628-0.0314-0.5966 0.0942-0.3768 0.5966-0.2826 0.5652-1.1932 0.3768-3.8622 0.0628-0.5338 0.314-0.2198 0.471-0.314 0.3768-2.983-2.2608-1.099 0.157-3.2656 1.3816-1.1304 0.0942-0.8478-1.9468-5.181-4.239-0.942-1.1304-1.099-0.5024-0.5966 0.0628-0.5652 0.2512-0.314 0.5652-0.471 0.2826-0.7536-0.2512-0.5966-0.8792-0.3768-0.8164-0.2512-0.942-0.4396-0.314-0.5966-0.157-1.8212 2.1352-1.0676 0.471-3.1714-0.8164-1.0048-0.9734-0.9106-1.1304-1.0676-0.4396-1.1618-0.0628-1.099-0.5966-3.2028-2.9202-2.355-1.2874-2.1666-0.1256-2.0096-0.6908-0.3454-0.1884-0.2512-0.314-0.1256-0.8478-0.2826-0.6908-0.9734-0.8478-0.5652 0.5024-1.256 0.4396-1.256-0.2512-0.628-1.0048-0.471-1.2246-1.1304-1.0676 0.1884-1.3502 0.5338-0.3768 0.5652 0.0314 0.5024-0.1884 0.3768-0.7222 0.6594-3.6424-1.5386-3.3912-2.355-1.7898-2.5434-0.9106 1.413-3.2656 0.4396-3.2342-0.9734-1.8526-0.2826-2.2294 2.8574-2.4178-1.5072-3.3912-2.6376-2.0724-0.3768-1.57 2.2608-2.983 0.8478-1.9468 0.8792-0.5338 0.942-3.297 0.785-1.6642 0.8478-1.2246 1.1618-0.1256 4.3332 1.1618 1.9468-0.785 0.0314-1.1304 0.1256-0.7536 0.157-0.6908 1.0048-0.942 2.1666-0.785 1.256-2.355 0.8478-0.6594 3.9878 0.785 5.3066-0.8164 1.099 0.1256 0.9106 1.1618 1.0362 0.9734 5.6206 0.942 2.669 1.6014 1.1618-0.7536 1.7898-0.6594 2.5434 0.3454 0.628 0.3768 0.4082 0.5024 0.5338 0.314 2.041 2.1352 0.9734 0.628 1.6956 0.6908 3.5796-0.2198z"/>
  <path class="sm_state_POL3144" d="m88.936 67.521 1.5072 1.8526 1.2874 2.2922 1.8212 1.1304 6.3742 0.2512 1.6642 0.9106 1.3816 1.6642-0.8478 1.9468-2.2608 2.983 0.3768 1.57 2.6376 2.0724 1.5072 3.3912-2.8574 2.4178 0.2826 2.2294 0.9734 1.8526-0.4396 3.2342-1.413 3.2656 2.5434 0.9106 2.355 1.7898 1.5386 3.3912-0.6594 3.6424-0.3768 0.7222-0.5024 0.1884-0.5652-0.0314-0.5338 0.3768-0.1884 1.3502 1.1304 1.0676 0.471 1.2246 0.628 1.0048 1.256 0.2512 1.256-0.4396 0.5652-0.5024 0.9734 0.8478 0.2826 0.6908 0.1256 0.8478 0.2512 0.314 0.3454 0.1884 2.0096 0.6908 2.1666 0.1256 2.355 1.2874 3.2028 2.9202 1.099 0.5966 1.1618 0.0628 1.0676 0.4396 0.9106 1.1304 1.0048 0.9734 3.1714 0.8164 1.0676-0.471 1.8212-2.1352 0.5966 0.157 0.4396 0.314 0.2512 0.942 0.3768 0.8164 0.5966 0.8792 0.7536 0.2512 0.471-0.2826 0.314-0.5652 0.5652-0.2512 0.5966-0.0628 1.099 0.5024 0.942 1.1304 5.181 4.239 0.8478 1.9468 1.1304-0.0942 3.2656-1.3816 1.099-0.157 2.983 2.2608 0.0628 1.6642 0.5966 1.2874 0.471 0.1256 0.0628 0.5024-1.9154 1.8526-3.14 1.3502-0.314 1.413-0.2826 3.2028-1.6014 1.8526-2.0724 0.5024-1.099-0.1256-0.9734 0.0942-0.4396 1.57-0.2198 1.727 0.3454 1.7898 0.5966 1.6328-0.1256 1.6014-1.5072 2.6376-0.3454 0.4082-4.553-0.5024-1.7898 0.8478-0.785 1.099-1.4758 3.4854-0.785 3.0772-0.157 3.3284 0.314 2.7632 0.0314 2.669-0.8792 2.3864-1.4758 1.0676-1.6956-0.8478-1.57 0.5024-0.5338 1.57-0.785 1.2246-2.2608 0.5338-0.5024 1.099 0.0628 1.6328 0.5966 1.3816 1.7898 1.6014 0.314 1.3502 0.1884 2.355-3.5482 2.1352-3.7052 1.3502-2.0096-0.0942-1.6328-1.3502-0.1884-1.1932-0.4082-1.099-1.0362-0.5338-1.0676 0.0628-0.4082-2.4806-0.3768-5.1182 0.8792-2.1038-1.099-0.9106-1.1932-0.3454-1.9154 0.4082-1.8526-0.4396-0.7222-1.8526-0.1884-2.1666 0.4082-1.0676 0.785-0.5024 0.4082-1.256 0.314-1.4444-3.1086-2.0096-3.454-0.942-3.6738-0.0314-1.3188 0.2826-1.1618 2.7004-6.4684 1.1304-3.611-1.2874-1.6956-1.884-3.0458-1.6956-1.3502-2.4178-0.0942-1.6328-0.5652-1.256-3.5168-1.9468-1.2874-0.314-2.7318 0.5024-0.9734-3.768-2.041-2.2294-2.2922 1.5386-1.413-0.471-1.3502-0.9106-0.4396-1.3502 0.1256-1.7584 0.2826-0.9734-0.0314-1.0048-0.5338-0.3454-0.5338 0.2512-1.1618-0.0314-1.099-1.1304-0.7222-1.3188-0.5652-1.57-1.727-0.942-0.8478-0.8792-0.7536-1.099-0.2198-1.6014v-1.6956l0.3768-1.5072 0.0628-0.785 0.157-0.7536 1.0048-2.983-0.0628-3.1714-0.628-1.5072-1.3188-2.355 0.6594-0.471h0.8478v-1.5386l-0.2512-1.884-0.3768-1.7898-1.099-3.0458-0.1256-2.8888 0.1256-1.099 0.0314-1.1618 0.2198-0.471 0.5024 0.0628 2.9516-0.942 0.5966-0.4082 0.314-0.785-0.6908-2.5748-0.942-0.8792 3.0458-3.925-0.1256-3.297 0.628-3.0144 1.727 0.5966 1.9154 1.1304 1.9468-0.2512 1.9154-0.7536 3.0458-2.8574 2.512-3.9878 4.5216-2.669 2.3236-0.7222 0.9106-0.8478 0.7222-1.3188 0.9734-1.1932-0.2198-1.5072-0.9734-1.256-1.1618-0.5966-2.355-0.5966-1.9468-1.9154-0.5024-1.884-0.0314-2.0724 0.7222-1.0048 5.7462 0.1256 0.942-0.157 0.785-3.3598 0.628-1.727 0.8164-1.4444 1.099-0.5024 1.1932-0.0314z"/>
  <path class="sm_state_POL3147" d="m162.38 132.68 3.0144 2.0724 3.297 0.6908 1.6014 0.7536 2.8888 2.355 6.4998-1.3502 1.0048-1.0362 1.1618-0.0942 0.8478 1.099 0.7536 1.2874 0.9734 0.5338 1.099 0.314 0.8792 0.5966 0.3768 1.3188 0.1256 1.7898 0.628 1.413 0.4396 0.2512 0.5024-0.1256 2.1352 0.8792 1.2246 0.8164 0.4396 0.5338-0.3454 2.5434-1.0362 0.628 0.2512 1.0676 0.8478 0.9734 0.7536 1.1304-0.0942 0.942 0.2826 0.8164 1.1304 0.3768 3.3284-0.3768 2.0724 0.942 2.2608 1.7584 1.8526 2.4806 0.1884 0.8164-0.2826 0.5966-0.314 0.471-0.157 0.628 0.2826 1.4444 1.6956 1.7584 0.471 1.2874-0.0942 1.1932-0.3768 0.8478-2.2922-0.314-1.8526-1.0362h-2.4492l-0.8164 2.8574 0.942 2.2294 0.2826 1.5386 0.1256 1.6014 0.2512 0.8164 1.1304 0.5652 0.4082 0.4396v1.6328l-0.5024 1.3816-2.0096 1.884-0.4082 1.3502 0.0942 1.4758-0.8792 0.6594-1.1618 2.8574-1.0362 0.471-1.0362 0.157-1.0048 0.5024-2.1666 2.0724-1.0048 0.2826-3.454-0.5024-0.9734 0.3768-0.7536 1.0048-0.785 3.0144 1.413 2.1666 0.9734 0.785 0.314 1.6642-0.2512 1.6014-0.7222 0.8478-4.1134-3.0144-1.099 0.1884-0.4082 1.6014-0.0314 1.6014 0.1256 1.5386-0.5338 1.5072-1.0676 0.7222-0.9106 0.8478-0.7222 1.2246-3.4226-1.727-3.1086 0.157-1.0676-0.314-2.9202-4.6786-1.884-1.727-2.1038-0.4082-1.0676 0.942-2.512 0.0314-2.0096-0.4396-4.1134-2.198-0.942-0.9734-1.099-0.2198-1.0048 0.6908-1.0048 0.471-4.4274 0.157-1.57 0.7536-2.355-1.884-0.7222-1.4444-0.8478-1.0048-0.3768 0.1884-0.2826 0.5338-0.4082 0.3454-2.198 0.0628-7.0022-1.7898-0.9106-0.7536-0.7222-1.256-0.1884-2.355-0.314-1.3502-1.7898-1.6014-0.5966-1.3816-0.0628-1.6328 0.5024-1.099 2.2608-0.5338 0.785-1.2246 0.5338-1.57 1.57-0.5024 1.6956 0.8478 1.4758-1.0676 0.8792-2.3864-0.0314-2.669-0.314-2.7632 0.157-3.3284 0.785-3.0772 1.4758-3.4854 0.785-1.099 1.7898-0.8478 4.553 0.5024 0.3454-0.4082 1.5072-2.6376 0.1256-1.6014-0.5966-1.6328-0.3454-1.7898 0.2198-1.727 0.4396-1.57 0.9734-0.0942 1.099 0.1256 2.0724-0.5024 1.6014-1.8526 0.2826-3.2028 0.314-1.413 3.14-1.3502 1.9154-1.8526-0.0628-0.5024-0.471-0.1256-0.5966-1.2874-0.0628-1.6642 0.314-0.3768 0.2198-0.471 0.5338-0.314 3.8622-0.0628 1.1932-0.3768 0.2826-0.5652 0.3768-0.5966 0.5966-0.0942z"/>
  <path class="sm_state_POL3146" d="m176.6 209.7 2.669 0.5024 0.3768 0.2198 0.1256 0.5652v0.5966l-0.157 0.4082-2.1352 0.3454-1.1618 2.2294 0.8478 1.0362 2.355 0.6594 1.099 0.8478 0.8478 1.9468 1.5072 1.8212-1.256 0.1884-2.1666 1.8212-0.628 1.3502 1.099 0.5652 2.1352 0.314 0.8792 0.3454 0.1884 1.0676 0.0942 0.8792-3.9564 2.512-1.0048 0.157-1.727-0.157-1.727 0.2826-2.7632 2.1352-0.8164 0.1884h-0.785l-1.727-1.0048-0.8478 1.256-0.8792 1.7584-1.3502 1.9468-2.1038-0.2826-0.9734 0.7536 1.6642 1.6642 1.4444 2.0096-7.4104 8.3524-0.6908 1.0362-0.6908 1.413-0.3454 1.6328 0.628 0.8164 0.8164 0.0942 0.6908 0.8478 0.0628 1.6328 0.942 1.6642 1.57 0.628 0.6594 1.1618 0.471 1.5072 1.0048 0.942 1.1618 0.5338 2.1352 0.3768-0.1256 1.256-0.5338 1.099-0.2512 1.0048 0.3768 0.8792 0.7536 0.5024 0.157 0.5338-0.3454 0.0314-0.1256 0.2198-2.7004 3.0144-0.2512 0.1884-0.7536 0.2512-0.9734-0.0314-0.5966 0.157-0.5024 0.2512-0.471 0.4082-0.4082 0.6908-0.5024 1.57 0.2198 0.4396-0.2198 0.4082-0.471 0.0314-0.2198 0.942-0.0942 0.5966-0.2198 0.3768-0.9734 0.4082-0.785 0.157-0.314-0.0314-0.942-0.5966-0.2826-0.1256-0.6594 0.1884-1.2246 0.6908-0.785 0.0628-0.628-0.1256-0.157-0.5338 0.1256-1.57-0.0942-0.7222-0.1256-0.6594-0.0314-0.6908 0.2512-0.785-0.9106-0.5652-3.0772-0.2826 0.1256-0.8164-0.0942-1.0048-0.4396-2.041-0.5024-1.2874-0.157-0.471-0.2198-1.6642-0.1256-0.3768-0.471-0.3454-0.471 0.0942-0.5024 0.2198-0.4396 0.0314-0.4082-0.2512-0.5966-0.7222-0.4082-0.314-0.471-0.157-0.942-0.0628-0.4396-0.314-0.1884-0.3454-0.314-1.413-0.7222-1.5386-0.5652-1.4758v-1.2874l0.8478-1.0048-0.8164-0.4396-0.1256-0.5966 0.0628-0.7536-0.1884-0.8792-0.471-0.2826-1.2246 0.785h-0.7222l-2.3236-1.2874-1.2246-0.4082-1.1304 0.157 0.0942 0.157-0.8792 0.7536-0.471 0.0942-0.628-0.5024-0.157-0.3454-0.3454-1.0048-0.3768-0.2826-0.7222-0.157-0.3768-0.157-1.0048-0.8478-0.471-0.2826-1.9782-0.3768-0.4082-0.471 0.1884-0.8792-1.8212-1.2246-0.4396-0.0942 0.0314-0.8164 1.884-3.6424 3.925-0.8478 1.884-1.413 3.0144-1.413 0.3454-1.4444 0.0314-2.4806-0.5338-6.3114 0.2826-1.0048 0.6594-0.1256 0.6908-0.314 0.0628-0.9106-0.3454-0.8478 0.4082-1.099 0.942-0.2198 4.5216 0.0314-0.3454-1.7898-1.0048-1.0676-1.0048-0.785-0.8478-1.1304-0.5966-1.8526 0.7536-2.041 0.5652-3.0772 0.8164-1.7584 2.4492-1.6014 0.2198-1.7584-0.4082-0.9106-0.1884-1.1304 0.2198-0.7536 0.4082-0.471 1.0676-3.8308 1.57-0.7536 4.4274-0.157 1.0048-0.471 1.0048-0.6908 1.099 0.2198 0.942 0.9734 4.1134 2.198 2.0096 0.4396 2.512-0.0314 1.0676-0.942 2.1038 0.4082 1.884 1.727 2.9202 4.6786 1.0676 0.314 3.1086-0.157z"/>
  <path class="sm_state_POL3141" d="m70.881 162.41 2.7318-0.5024 1.2874 0.314 3.5168 1.9468 0.5652 1.256 0.0942 1.6328 1.3502 2.4178 3.0458 1.6956 1.6956 1.884 3.611 1.2874 6.4684-1.1304 1.1618-2.7004 1.3188-0.2826 3.6738 0.0314 3.454 0.942 3.1086 2.0096-0.314 1.4444-0.4082 1.256-0.785 0.5024-0.4082 1.0676 0.1884 2.1666 0.7222 1.8526 1.8526 0.4396 1.9154-0.4082 1.1932 0.3454 1.099 0.9106-0.8792 2.1038 0.3768 5.1182 0.4082 2.4806-1.0362 0.6594-1.099 0.2512-1.0676-0.0628-1.0362 0.3454-0.8164 0.8792-1.8212 4.1762-0.314 1.2246-0.1884 1.2874-0.5024 1.5072-1.0048 0.6594-1.4758 1.9468-1.1304 2.6062-2.6062 3.8622-2.2608 4.3018-0.7222 2.7632-1.099 1.9468-1.9154 0.314-1.6328 1.256-2.2608 5.6206-0.1256 0.5966-0.8792-0.5338-0.7222-0.0942-0.8478 0.5338v0.6594l1.0048 1.5072 0.3454 0.8792 0.2512 1.0362 0.314 0.9734 0.5652 0.5966 0.785 0.4396 0.5652 0.628 0.314 0.8792 0.0628 1.1932 0.4082 0.5338 0.0628 0.6594-0.2198 0.4082-0.3768-0.1256-0.471-0.8164-0.1884-0.1256h-0.471l-0.0628 0.1256v0.5966l-0.3768 0.1884-0.5652-0.1884h-0.2826l-0.3768 0.2512-0.5024 0.7222-0.314 0.2826-0.7222 0.1884-0.628-0.0628-0.628 0.0942-0.6908 0.5966-0.5652 0.8792-0.3454 0.6594-0.3768 0.5338-0.6908 0.5024-0.9734 1.3188-1.256 0.0942-1.3188-0.6908-1.0676-0.9734-0.5652-0.7222-0.2826-0.628-0.3768-1.6642-0.314-0.9106-0.942-1.0048-0.4082-0.7222-0.471-0.628-0.785-1.4444-0.4396-0.628-0.6908-0.5024-1.413-0.5024-0.5338-0.7536-0.0942-0.4082v-0.9106l-0.2198-0.4396-0.2826-0.0942h-1.4444l-0.8164 0.3454-0.4082-0.314-0.1256-0.2826-0.4082-1.256-1.0048-0.1884-0.314-0.8792 0.2512-0.785 0.628 0.157-0.2198-0.7222 0.6594-0.2512 0.471-0.4082 0.5652-0.3454 0.471-0.3768 0.2198-0.6594 0.5024-0.157 1.0048 0.2826 0.5338-0.1256 0.2826-0.4082 0.6594-0.628 0.1884-0.3454 0.0628-0.9106 0.2198-0.4396-0.0942-0.5338 0.9734-0.4082-0.2826-0.942-2.669-2.826-0.9734-0.5338-1.0048-0.2826h-1.1304l-0.4082 0.0628-0.471 1.1304-0.3768 0.5024-0.5024 0.0942-0.5024-0.2198-0.9734-0.7536-1.3188-0.1256-1.9468 1.884-1.3188 0.2512-0.0942-0.314 0.0942-0.314 0.4396-0.3768 0.0628-0.5966-0.157-0.6594-0.2826-0.6908-0.4082-0.7536-0.4082-0.4082-0.5338-0.0942-1.8526 0.7222h-0.8478l-0.2198-0.0628-1.57-2.7004-0.157-0.628-0.785-0.0628-2.6062 0.628-0.314-0.1256-0.2198-0.2198-0.4396-0.628-0.3454-0.2512-6.2486-2.198-1.3188 0.1256-0.2826 0.3454-0.314 0.5338-0.3454 0.3768-0.4396-0.157-0.1884-0.4082 0.1256-0.9734-0.0314-0.471-0.3768-0.9106-0.471-0.4082-0.5652-0.2512-0.628-0.5024-0.314-0.5338-0.3768-0.8164-0.2826-0.8792-0.0942-0.7222 0.2198-0.9106 0.2512-0.5024 0.0314-0.5024-0.5024-0.785-0.8164-0.4396-1.7898-0.0314-0.2826-0.7222-0.157-0.7536-0.3454-0.1884-0.4082 0.2826-0.2826 0.6594-0.1256 0.5024-0.3454 0.0942-0.4396-0.2198-0.3768-0.3768-0.2512-0.5024-1.57-0.3454-0.5966-0.5338-0.2512 0.628-0.4396 0.3454-0.3768 0.1256-0.2826 0.2826 0.1256 0.5652 0.5024 0.4082 0.471 0.6908 0.0314 1.4444-0.3768 0.5966-0.1256 0.4396 0.0628 0.3454 0.0314 1.727-0.0628 0.4082-3.5796-0.2512-1.1304 0.314-0.6594-0.0314v-0.9106l0.4396-0.7222 1.099-1.256 1.6014-3.768 1.3816-3.5482 0.0942-0.5652v-0.9734l0.0628-0.471 0.157-0.3454 0.471-0.5652 0.0628-0.6594 0.0314-1.256 0.2512-1.3816 0.4396-1.3502 0.5338-1.0362-0.2512-0.314 0.157-1.4444-0.4396-0.9734-0.7222-0.8478-0.5652-1.0048-0.2512-1.2874-0.1884-2.1352 0.5966-0.3454 5.024-2.6376h0.8792l1.8526 1.6014 0.9106 0.0628 1.57-2.7318 1.0362-1.256 2.2922-0.785 4.396 2.4178 2.2294-0.5338 3.454-4.5844 3.0772-6.0288 0.6908-0.5024 1.099-0.3768 0.942-0.942 0.4396-1.3188 0.628-0.8478 4.7414 0.8792 0.8164 0.9106 0.1256 1.7584 1.727 2.2294 2.4806-0.5652 1.9154-1.6642z"/>
  <path class="sm_state_POL3140" d="m165.08 31.411 0.1256-0.5024-0.7536 0.0942-2.7632-0.3454-0.7536 0.8792-0.2198 1.8212 0.6908 2.041 0.628 1.1304 0.3454 1.3502-0.3768 0.9734-0.471 0.8792-1.3816 1.3816-0.5024 0.7536 0.0942 1.0362 0.5652 2.2922 1.0676 1.727 1.5072 0.9106 1.6014 0.1884 0.8164 1.1304-0.628 2.0724 1.1304 0.5652 3.0772-0.2512 1.57 0.4082-0.1256 0.8792v0.8792l-0.3768 0.6908-0.5652 0.5966-0.5024 1.5072-0.3768 0.5966-0.0628 0.8478-1.7584 0.785-2.512-0.1884-1.3188 0.8478-1.099 1.1932-4.6158 8.635-1.6956 0.7536-3.5796 0.2198-1.6956-0.6908-0.9734-0.628-2.041-2.1352-0.5338-0.314-0.4082-0.5024-0.628-0.3768-2.5434-0.3454-1.7898 0.6594-1.1618 0.7536-2.669-1.6014-5.6206-0.942-1.0362-0.9734-0.9106-1.1618-1.099-0.1256-5.3066 0.8164-3.9878-0.785-0.8478 0.6594-1.256 2.355-2.1666 0.785-1.0048 0.942-0.157 0.6908-0.1256 0.7536-0.0314 1.1304-1.9468 0.785-4.3332-1.1618-1.1618 0.1256-0.8478 1.2246-0.785 1.6642-0.942 3.297-0.8792 0.5338-1.3816-1.6642-1.6642-0.9106-6.3742-0.2512-1.8212-1.1304-1.2874-2.2922-1.5072-1.8526-0.5652-5.7462 1.3188-1.3188 0.942-1.6642-0.3768-1.1304-0.5338-0.8792-0.628-0.314-0.0314-1.0362 1.57-0.7536 1.727 0.2512-0.5966-1.2874-0.7222-1.0362-0.8792-0.785-1.1618-2.3864-0.7536-0.9106-1.3502-0.9734v-2.9202l-0.2512-2.9516-1.9782-6.0602 4.3646-1.0676 0.5024-0.785-0.1256-1.3188-0.5966-0.8478-0.3454-0.7536 0.2198-0.9734 0.8478-0.8478 0.314-1.4444-0.2198-2.5748-0.9734-1.9782-2.5748-3.7366-2.2294-4.5216 2.3236-0.9106 1.3188-0.2512 1.1932-0.4082 2.983-3.297 9.4514-4.4588 11.838-2.2294 5.3066-1.8212 8.3524-0.785h5.1496l0.6908 0.2512 1.1304 1.0048 0.4396 0.2198 0.628 0.157 10.707 6.4056 1.9468 2.5434 0.314 0.5966 0.314 0.8478 0.0314 0.7222-0.5652 0.2512-0.471-0.942-0.5652-0.4082-0.3768-1.0362-0.5338-0.6594-1.4758-2.512-0.2826-0.157-1.099-0.2198-0.2826-0.1256-0.314-0.5024-0.8792-0.314-1.8526-1.2874-1.8526-0.8792-0.2826-0.4082-1.0362-0.785-0.2512-0.1256-0.3768 0.157-0.2198 0.2826-0.4396 1.5386-0.0628 0.3768v0.785l0.1884 0.1884 0.7536 0.3454 0.5338 0.8792 0.4396 0.9734-0.1256 0.785v0.3454l0.3768 0.4082-0.1884 1.0362 0.3454 0.471 0.5966-0.1256 0.5338-0.6908-0.1884 0.9106 0.2512 0.7222 0.3768 0.5966 0.8164 2.4492 0.2198 0.5338-0.1256 1.2246 0.0314 2.1352 0.2198 2.0096 0.4396 0.9106 0.471 0.157 0.9734 0.7222 0.471 0.1884 0.4396 0.0314 0.5024 0.157 0.471 0.314 0.1884 0.471 0.5024 0.7222 5.2752 1.727 1.1618 0.0628 1.0048-0.5338 0.2512 0.2826 0.3768 0.1884 0.8478 0.2826 11.744-1.7584 2.5748-1.256 1.2246-0.314 1.0048-0.4396 1.9154-2.0096 0.5338-0.2512 0.3454 0.2826-5.5578 4.3018-1.3502 0.6908-1.3188 0.3768-2.7318 0.2512-1.2874 0.5024v0.314l0.7222 0.9734 0.3454 0.1884-0.3454 0.314-0.0942 0.7536 0.785 0.471 2.7632 0.3454 0.7536-0.0942v0.4082z"/>
  <path class="sm_state_POL3143" d="m60.487 97.948-0.628 3.0144 0.1256 3.297-3.0458 3.925 0.942 0.8792 0.6908 2.5748-0.314 0.785-0.5966 0.4082-2.9516 0.942-0.5024-0.0628-0.2198 0.471-0.0314 1.1618-0.1256 1.099 0.1256 2.8888 1.099 3.0458 0.3768 1.7898 0.2512 1.884v1.5386h-0.8478l-0.6594 0.471 1.3188 2.355 0.628 1.5072 0.0628 3.1714-1.0048 2.983-0.157 0.7536-0.0628 0.785-0.3768 1.5072v1.6956l0.2198 1.6014 0.7536 1.099 0.8478 0.8792 1.727 0.942 0.5652 1.57 0.7222 1.3188 1.099 1.1304 1.1618 0.0314 0.5338-0.2512 0.5338 0.3454 0.0314 1.0048-0.2826 0.9734-0.1256 1.7584 0.4396 1.3502 1.3502 0.9106 1.413 0.471 2.2922-1.5386 2.041 2.2294 0.9734 3.768-1.5072 2.512-1.9154 1.6642-2.4806 0.5652-1.727-2.2294-0.1256-1.7584-0.8164-0.9106-4.7414-0.8792-0.628 0.8478-0.4396 1.3188-0.942 0.942-1.099 0.3768-0.6908 0.5024-3.0772 6.0288-3.454 4.5844-2.2294 0.5338-4.396-2.4178-2.2922 0.785-1.0362 1.256-1.57 2.7318-0.9106-0.0628-1.8526-1.6014h-0.8792l-5.024 2.6376-0.5966 0.3454-0.0942-1.3188 0.2512-0.628-0.314-0.6908-0.5966-0.628-0.471-0.3768-0.7222-0.3454-1.4444-0.4396-0.7222-0.4082-0.6594-0.471-2.041-0.6908-0.6908-0.7222-0.1884-0.8792 0.2512-1.0048 0.628-0.942 0.3768-1.0048-0.0628-1.3502-0.314-1.2874-0.4082-0.8478-1.5072-1.2874-0.7222-0.8164-0.314-1.2874-0.1256-1.3502-0.4396-0.5652-0.5652-0.4082-0.5024-0.785-0.0942-1.0676 0.4082-0.8792 1.7898-1.8212 0.5966-0.785 0.471-0.9106 0.2512-1.0048 0.1256-3.0772 0.157-0.5024 0.6908-1.2246 0.1256-0.5024 0.157-0.9106 0.2512-0.4396 0.5652-0.7222-2.041-1.5072-0.314-0.7536 0.1884-1.3188 0.3454-0.9106 0.1256-0.7536-0.471-0.6908v-0.314l0.628-0.8164v-1.0362l-0.471-0.9106-0.8792-0.3768-0.8792-0.2198-1.0676-0.5338-0.7222-0.785 0.1884-0.942-0.628-1.4758-0.7536-2.2608-0.1884-2.041 1.6328-1.413 0.7536-1.2246 0.5024-1.1932-0.1256-0.5338-0.5966-0.5652 0.2512-1.1932 0.8792-1.8212-0.9734-0.8164-0.1884-0.1884 0.785-2.7632 0.6594-1.0362 2.669-0.4396 1.57-0.6594 2.4492-3.454 2.0096-4.3646 3.0458-1.6956 5.2124 1.727 1.6328-0.2512 1.9468-2.2294 1.1618-2.2608-0.8478-0.157-0.628-0.8478 1.7898-0.0942 5.3066-1.8212 6.437 0.0314 1.57-1.1618 2.826-3.611 1.6328-1.2874 1.6956-0.2512 1.57 0.3454 0.8164 2.5748z"/>
  <path class="sm_state_POL3142" d="m88.936 67.521-1.1932-0.3768-1.1932 0.0314-1.099 0.5024-0.8164 1.4444-0.628 1.727-0.785 3.3598-0.942 0.157-5.7462-0.1256-0.7222 1.0048 0.0314 2.0724 0.5024 1.884 1.9468 1.9154 2.355 0.5966 1.1618 0.5966 0.9734 1.256 0.2198 1.5072-0.9734 1.1932-0.7222 1.3188-0.9106 0.8478-2.3236 0.7222-4.5216 2.669-2.512 3.9878-3.0458 2.8574-1.9154 0.7536-1.9468 0.2512-1.9154-1.1304-1.727-0.5966 0.5652-2.4492-0.8164-2.5748-1.57-0.3454-1.6956 0.2512-1.6328 1.2874-2.826 3.611-1.57 1.1618-6.437-0.0314-5.3066 1.8212-1.7898 0.0942 0.628 0.8478 0.8478 0.157-1.1618 2.2608-1.9468 2.2294-1.6328 0.2512-5.2124-1.727-3.0458 1.6956-2.0096 4.3646-2.4492 3.454-1.57 0.6594-2.669 0.4396-0.6594 1.0362-0.785 2.7632-1.8212-2.0724-1.8526-0.7222-0.9106-1.256-0.5966-0.2826-0.314-0.314-1.0676-2.1038-0.5024-0.5652-3.3284-2.4806-0.8478-0.4396-1.0048-1.2246-0.628-0.2826-0.6908-0.0314-0.6594-0.2198-0.5652-0.4396-0.3454-0.7222 0.8164-0.7222 0.3454-0.628 0.1256-0.9734-0.0628-0.6594-0.4082-1.8212-0.1884-0.5338v-0.314l1.5386-1.1304 1.884-1.0048 1.8526-1.4758 0.9734-1.0048 0.4082-0.942 0.0942-0.4396 0.942-2.9516-0.0628-0.7536-0.1884-0.7536-0.1256-0.8478 0.0942-0.6908 0.2198-0.628 0.314-0.471 0.314-0.1884 0.2512-0.314 0.785-1.6328-0.4082-0.3768-0.0942-0.2826-0.5024-0.4082-0.1884-0.3454-0.0942-0.5024-0.0628-1.3816-0.8792-4.0506-0.314-2.7318-0.6594-1.099-0.314-1.099-0.7536-1.1932-0.2512-1.0676v-1.1618l0.0628-1.9468-0.0628-0.5024-0.628-2.0724-0.471-1.0362 0.1256-0.8164-0.0628-1.4758 0.314-0.0314 0.5652-0.2512 0.4082-0.3768 0.0628-0.4396-0.5652-0.3768 0.314-0.1884v-0.3768l-0.314-0.157 0.1884-0.4082 0.2826 0.2826 0.8478 0.5024 0.3454 1.0362 0.4396 0.3454 0.8792 0.4082 0.628 0.6594 0.3454 0.2826 1.3502 0.2512 1.6956 0.5966 0.5652 0.471 0.5024 0.6908 1.0048 1.9782 0.3768 0.471 0.157-0.157 0.0314-0.8478 0.157-0.5024 0.2512-0.314 0.4396-0.3454v-0.7222l-0.3454-0.0942-0.785-0.0628-0.3768-0.1884-0.9734-2.355 0.2198-1.1618 0.7536-2.2922 0.3768 0.314 0.628-0.314h0.5024l-0.2198-1.3502 0.1256-1.0676 0.1884-0.942 0.1256-1.0048h-0.2198l-0.0942 0.628-0.2198 0.4396-0.7536 0.7536-0.314 0.0942-0.3454-0.471 0.6594-0.7222-0.4396-0.8792-0.7536-0.4396-3.454-0.3454-0.5024-0.5652 0.4082-1.0362-0.1884-0.3454-0.314 0.5338-0.2512 0.0628-0.628-0.2512-0.2826 0.1256-0.6908 0.942 0.942 0.1884 0.5024 0.2198 0.2826 0.3454-0.0628 0.6594-0.3454 0.471-0.3768 0.157-0.2826-0.1884-0.8792 0.5338-0.8478 0.1884v0.3454l0.4082 0.1884-0.4082 0.1884-0.314-0.0314-0.5024-0.2826-0.3454-0.0628-0.5338-0.3454-1.5072-2.1666-0.785-0.3454-0.2512-0.8164-0.5652-0.6908 0.5652-0.2512 0.5338-1.4444 0.5024 0.2512 0.3454 0.2826 0.9734 0.3454 3.0772 0.2826 1.256-0.2826 1.1932-0.628 2.2608-1.6642 8.2582-3.7052 7.1592-1.884 8.6978-3.6738 5.6206-1.5072 6.1858-1.6642 6.0602-2.7632 5.024-0.628 3.4854-1.1618-0.4082 0.3768-1.5386 0.7222 0.6594 0.471 2.7632-0.471-0.2198-0.3454v-0.4082h1.5072l-0.2198-0.3454 0.0628-0.8792-0.7222-0.0314-1.6956 0.5338 1.0676-0.5338 1.2874-0.8478 1.9468-2.2922-0.3768 0.8164-0.7222 0.7222 0.0314 0.314 0.5652-0.1256 0.5024-0.2198 0.4082-0.5024 1.099-0.5338 0.4082-0.471-0.3768-0.785h-0.5966l-0.7536 0.785 1.3188-2.2922 3.6424-4.6786v0.3454l-0.1884 0.5024 0.314 0.157 0.5338-0.1884 0.3768-0.471 0.2198-0.7222-0.1884-0.2198-0.4082 0.157-0.471 0.4396 0.628-1.2874 1.099-1.099 2.1352-1.3188 6.5312-0.9734 0.2198-0.0942 2.2294 4.5216 2.5748 3.7366 0.9734 1.9782 0.2198 2.5748-0.314 1.4444-0.8478 0.8478-0.2198 0.9734 0.3454 0.7536 0.5966 0.8478 0.1256 1.3188-0.5024 0.785-4.3646 1.0676 1.9782 6.0602 0.2512 2.9516v2.9202l1.3502 0.9734 0.7536 0.9106 1.1618 2.3864 0.8792 0.785 0.7222 1.0362 0.5966 1.2874-1.727-0.2512-1.57 0.7536 0.0314 1.0362 0.628 0.314 0.5338 0.8792 0.3768 1.1304-0.942 1.6642-1.3188 1.3188z"/>
 </g>
 <desc>Created with Raphaël 2.1.0</desc>
 <rect class="sm_location_0" x="211.73" y="133.03" width="7.9128" height="7.9128" r="0" rx="0" ry="0" fill="#f00" opacity=".8" stroke="#fff" stroke-width=".79128"/>
 <g fill="#f09" stroke="#fff" stroke-width=".79128">
  <rect class="sm_location_1" x="163.86" y="156.91" width="7.9128" height="7.9128" r="0" rx="0" ry="0" opacity=".8"/>
  <rect class="sm_location_2" x="84.095" y="125.33" width="7.9128" height="7.9128" r="0" rx="0" ry="0" opacity=".8"/>
  <rect class="sm_location_3" x="87.522" y="190.03" width="7.9128" height="7.9128" r="0" rx="0" ry="0" opacity=".8"/>
  <rect class="sm_location_4" x="152.27" y="233" width="7.9128" height="7.9128" r="0" rx="0" ry="0" opacity=".8"/>
  <rect class="sm_location_5" x="178.23" y="242.77" width="7.9128" height="7.9128" r="0" rx="0" ry="0" opacity=".8"/>
  <rect class="sm_location_6" x="115.36" y="212.35" width="7.9128" height="7.9128" r="0" rx="0" ry="0" opacity=".8"/>
  <rect class="sm_location_7" x="242.99" y="243.76" width="7.9128" height="7.9128" r="0" rx="0" ry="0" opacity=".8"/>
  <rect class="sm_location_8" x="260.83" y="184.58" width="7.9128" height="7.9128" r="0" rx="0" ry="0" opacity=".8"/>
  <rect class="sm_location_9" x="199.83" y="201.98" width="7.9128" height="7.9128" r="0" rx="0" ry="0" opacity=".8"/>
  <rect class="sm_location_10" x="279.62" y="88.15" width="7.9128" height="7.9128" r="0" rx="0" ry="0" opacity=".8"/>
  <rect class="sm_location_11" x="214.87" y="53.465" width="7.9128" height="7.9128" r="0" rx="0" ry="0" opacity=".8"/>
  <rect class="sm_location_12" x="137.61" y="21.99" width="7.9128" height="7.9128" r="0" rx="0" ry="0" opacity=".8"/>
  <rect class="sm_location_13" x="117.89" y="88.116" width="7.9128" height="7.9128" r="0" rx="0" ry="0" opacity=".8"/>
  <rect class="sm_location_14" x="10.903" y="72.4" width="7.9128" height="7.9128" r="0" rx="0" ry="0" opacity=".8"/>
  <rect class="sm_location_15" x="31.229" y="108.34" width="7.9128" height="7.9128" r="0" rx="0" ry="0" opacity=".8"/>
 </g>
</svg>
