<?xml version="1.0" encoding="UTF-8"?>
<svg width="24.06mm" height="22.032mm" version="1.1" viewBox="0 0 24.06 22.032" xmlns="http://www.w3.org/2000/svg" xmlns:cc="http://creativecommons.org/ns#" xmlns:dc="http://purl.org/dc/elements/1.1/" xmlns:rdf="http://www.w3.org/1999/02/22-rdf-syntax-ns#">
 <metadata>
  <rdf:RDF>
   <cc:Work rdf:about="">
    <dc:format>image/svg+xml</dc:format>
    <dc:type rdf:resource="http://purl.org/dc/dcmitype/StillImage"/>
    <dc:title/>
   </cc:Work>
  </rdf:RDF>
 </metadata>
 <g transform="translate(-90.024 -125.81)" stroke-width=".26458">
  <path class="sm_state_POL3141" d="m102.93 126.09 0.72279-0.13293 0.34063 0.0831 0.93048 0.51509 0.14954 0.33232 0.0249 0.43201 0.35724 0.63971 0.80587 0.44863 0.44863 0.49847 0.95541 0.34063 1.7114-0.29909 0.30739-0.71448 0.34894-0.0748 0.97202 8e-3 0.91387 0.24924 0.82249 0.53171-0.0831 0.38216-0.10801 0.33232-0.20769 0.13292-0.10801 0.28247 0.0499 0.57325 0.19109 0.49017 0.49016 0.11631 0.50679-0.10801 0.3157 0.0914 0.29077 0.24093-0.23262 0.55663 0.0997 1.3542 0.108 0.65633-0.27416 0.17446-0.29077 0.0665-0.28247-0.0166-0.27416 0.0914-0.21601 0.23262-0.48186 1.105-0.0831 0.32401-0.0499 0.34063-0.13293 0.39878-0.26585 0.17446-0.39047 0.51509-0.29909 0.68956-0.68955 1.0219-0.59817 1.1382-0.19109 0.73109-0.29077 0.5151-0.50679 0.0831-0.43201 0.33231-0.59817 1.4871-0.0332 0.15785-0.23262-0.14123-0.19108-0.0249-0.22431 0.14123v0.17446l0.26585 0.39878 0.0914 0.23262 0.0665 0.27416 0.0831 0.25755 0.14954 0.15785 0.2077 0.11631 0.14954 0.16616 0.0831 0.23262 0.0166 0.3157 0.10801 0.14123 0.0166 0.17447-0.0582 0.108-0.0997-0.0332-0.12462-0.216-0.0498-0.0332h-0.12462l-0.0166 0.0332v0.15785l-0.0997 0.0498-0.14954-0.0498h-0.0748l-0.0997 0.0665-0.13293 0.19108-0.0831 0.0748-0.19108 0.0498-0.16616-0.0166-0.16616 0.0249-0.18277 0.15785-0.14955 0.23262-0.0914 0.17447-0.0997 0.14123-0.18277 0.13293-0.25755 0.34893-0.33231 0.0249-0.34893-0.18277-0.28247-0.25755-0.14955-0.19108-0.0748-0.16616-0.0997-0.44032-0.0831-0.24093-0.24923-0.26585-0.10801-0.19108-0.12462-0.16616-0.20769-0.38216-0.11631-0.16616-0.18278-0.13293-0.37385-0.13293-0.14124-0.19939-0.0249-0.108v-0.24093l-0.0581-0.11631-0.0748-0.0249h-0.38216l-0.21601 0.0914-0.108-0.0831-0.0332-0.0748-0.10801-0.33232-0.26585-0.0498-0.0831-0.23262 0.0665-0.2077 0.16616 0.0415-0.0582-0.19108 0.17447-0.0665 0.12461-0.108 0.14955-0.0914 0.12462-0.0997 0.0582-0.17447 0.13292-0.0415 0.26586 0.0748 0.14123-0.0332 0.0748-0.108 0.17447-0.16616 0.0498-0.0914 0.0166-0.24093 0.0582-0.11631-0.0249-0.14123 0.25754-0.10801-0.0748-0.24923-0.70617-0.74772-0.25755-0.14123-0.26585-0.0748h-0.2991l-0.108 0.0166-0.12462 0.29908-0.0997 0.13293-0.13293 0.0249-0.13293-0.0582-0.25754-0.19939-0.34893-0.0332-0.51509 0.49847-0.34894 0.0665-0.02492-0.0831 0.02492-0.0831 0.11631-0.0997 0.01662-0.15785-0.04154-0.17446-0.07477-0.18278-0.108-0.19939-0.108-0.108-0.14123-0.0249-0.49017 0.19108h-0.22431l-0.05815-0.0166-0.4154-0.71448-0.04154-0.16616-0.2077-0.0166-0.68956 0.16616-0.08308-0.0332-0.05815-0.0582-0.11631-0.16616-0.09139-0.0665-1.6533-0.58155-0.34893 0.0332-0.07477 0.0914-0.08308 0.14123-0.09139 0.0997-0.11631-0.0415-0.04985-0.108 0.03323-0.25755-0.0083-0.12462-0.09969-0.24093-0.12462-0.108-0.14954-0.0665-0.16616-0.13293-0.08308-0.14123-0.0997-0.21601-0.07477-0.23262-0.02492-0.19108 0.05815-0.24093 0.06646-0.13293 0.0083-0.13293-0.13293-0.2077-0.21601-0.11631-0.47355-8e-3 -0.07477-0.19108-0.04154-0.19939-0.09139-0.0498-0.108 0.0748-0.07477 0.17447-0.03323 0.13293-0.09139 0.0249-0.11631-0.0581-0.0997-0.0997-0.06646-0.13293-0.4154-0.0914-0.15785-0.14124-0.06646 0.16616-0.11631 0.0914-0.09969 0.0332-0.07477 0.0748 0.03323 0.14954 0.13293 0.10801 0.12462 0.18277 0.0083 0.38217-0.0997 0.15785-0.03323 0.11631 0.01662 0.0914 0.0083 0.45693-0.01662 0.10801-0.9471-0.0665-0.29908 0.0831-0.17447-8e-3v-0.24093l0.11631-0.19108 0.29078-0.33232 0.4237-0.99695 0.36555-0.93879 0.02492-0.14954v-0.25755l0.01662-0.12462 0.04154-0.0914 0.12462-0.14955 0.01662-0.17446 0.0083-0.33232 0.06646-0.36555 0.11631-0.35724 0.14124-0.27416-0.06646-0.0831 0.04154-0.38216-0.11631-0.25755-0.19108-0.22431-0.14954-0.26586-0.06646-0.34062-0.04985-0.56494 0.15785-0.0914 1.3293-0.69786h0.23262l0.49017 0.4237 0.24093 0.0166 0.4154-0.72279 0.27416-0.33232 0.60648-0.20769 1.1631 0.63971 0.58986-0.14124 0.91387-1.213 0.81418-1.5951 0.18278-0.13292 0.29078-0.0997 0.24924-0.24923 0.11631-0.34894 0.16616-0.22431 1.2545 0.23262 0.21601 0.24093 0.0332 0.46524 0.45693 0.58987 0.65633-0.14955 0.50678-0.44032z" fill="#88a4bc"/>
  <rect class="sm_location_3" x="107.34" y="133.39" width="2.0936" height="2.0936" r="0" rx="0" ry="0" fill="#f09" opacity=".8"/>
 </g>
</svg>
