<svg width="20.28mm" height="19.499mm" version="1.1" viewBox="0 0 20.28 19.499" xmlns="http://www.w3.org/2000/svg" xmlns:cc="http://creativecommons.org/ns#" xmlns:dc="http://purl.org/dc/elements/1.1/" xmlns:rdf="http://www.w3.org/1999/02/22-rdf-syntax-ns#">
 <g transform="translate(-152.39 -218.55)" stroke-width=".26458">
  <path class="sm_state_POL3145" d="m167.54 220.51 0.71448 1.404 0.2077 0.58987 0.24924 0.48186 0.12461 0.18277 0.19939 0.0831 0.15785 8e-3 0.63141 0.2077 0.88064 0.54001 0.9471 0.24924 0.46524 0.32401 0.42371 1.08 0.12461 1.2628-0.39878 0.32401-0.4237 0.19939 0.0498 0.25754 8e-3 0.27417 0.0665 0.40708-0.0249 0.26586-0.0415 0.27416-0.0831 0.23262-0.15785-0.0249-0.14954-0.108-0.15785-0.0665-0.18278 0.17446-0.14954 0.23262-0.34893 0.29078-0.39878-0.0498 0.12462 0.55663-0.0415 0.50679-0.16616 0.18277-0.0665 0.28247 0.0914 0.28247 0.13292 0.25754 0.24093 0.58156 8e-3 0.44863-0.35724 0.0997-0.55663 1.62-0.216 0.44863-0.0499 0.5234 0.17446 0.17446 0.0332 0.24924-0.61478 1.0136-0.0332 0.23262-0.0498 0.23262-0.16616-8e-3 -0.15785 0.0249-0.0997 0.15785-0.0748 0.14954-0.3157 0.0997-1.0219 0.0166-0.14123 0.0831-0.0582 0.12462-0.0831 0.0997-0.78925-0.59817-0.29078 0.0415-0.86402 0.36555-0.29909 0.0249-0.22431-0.51509-1.3708-1.1216-0.24924-0.29909-0.29077-0.13292-0.15785 0.0166-0.14955 0.0665-0.0831 0.14954-0.12462 0.0748-0.19939-0.0665-0.15784-0.23264-0.0997-0.21601-0.0665-0.24924-0.11631-0.0831-0.15785-0.0415-0.48186 0.56493-0.28247 0.12462-0.8391-0.216-0.26585-0.25755-0.24093-0.29908-0.28247-0.11631-0.30739-0.0166-0.29078-0.15785-0.84741-0.77264-0.62309-0.34062-0.57325-0.0332-0.5317-0.18278-0.0914-0.0499-0.0665-0.0831-0.0332-0.22432-0.0748-0.18277-0.25754-0.22432-0.14955 0.13293-0.33231 0.11631-0.33232-0.0665-0.16616-0.26586-0.12462-0.324-0.29908-0.28247 0.0499-0.35724 0.14123-0.0997 0.14954 8e-3 0.13293-0.0498 0.0997-0.19109 0.17447-0.9637-0.40709-0.89725-0.62309-0.47355-0.67294-0.24093 0.37385-0.86403 0.11632-0.85571-0.25755-0.49017-0.0748-0.58986 0.75602-0.63971-0.39878-0.89726-0.69787-0.54832-0.0997-0.4154 0.59817-0.78925 0.22431-0.51509 0.23262-0.14123 0.24924-0.87233 0.2077-0.44032 0.22431-0.32401 0.3074-0.0332 1.1465 0.30739 0.51509-0.2077 8e-3 -0.29908 0.0332-0.19939 0.0415-0.18278 0.26585-0.24924 0.57325-0.20769 0.33232-0.6231 0.22431-0.17446 1.0551 0.20769 1.404-0.216 0.29078 0.0332 0.24093 0.30739 0.27416 0.25755 1.4871 0.24924 0.70617 0.4237 0.30739-0.19939 0.47355-0.17447 0.67295 0.0914 0.16615 0.0997 0.10801 0.13292 0.14123 0.0831 0.54002 0.56494 0.25754 0.16616 0.44863 0.18277 0.9471-0.0582z" fill="#88a4bc"/>
  <rect class="sm_location_13" x="157.16" y="225.51" width="2.0936" height="2.0936" r="0" rx="0" ry="0" fill="#f09" opacity=".8"/>
 </g>
</svg>
