<?xml version="1.0" encoding="UTF-8"?>
<svg width="21.667mm" height="20.388mm" version="1.1" viewBox="0 0 21.667 20.388" xmlns="http://www.w3.org/2000/svg" xmlns:cc="http://creativecommons.org/ns#" xmlns:dc="http://purl.org/dc/elements/1.1/" xmlns:rdf="http://www.w3.org/1999/02/22-rdf-syntax-ns#">
 <metadata>
  <rdf:RDF>
   <cc:Work rdf:about="">
    <dc:format>image/svg+xml</dc:format>
    <dc:type rdf:resource="http://purl.org/dc/dcmitype/StillImage"/>
    <dc:title/>
   </cc:Work>
  </rdf:RDF>
 </metadata>
 <g transform="translate(-124.48 -132.68)" stroke-width=".26458">
  <path class="sm_state_POL3147" d="m134.75 132.69 0.79756 0.54832 0.87233 0.18278 0.42371 0.19939 0.76433 0.62309 1.7197-0.35724 0.26586-0.27416 0.30739-0.0249 0.22431 0.29077 0.19939 0.34063 0.25755 0.14123 0.29078 0.0831 0.23262 0.15785 0.0997 0.34893 0.0332 0.47356 0.16616 0.37385 0.11631 0.0665 0.13292-0.0332 0.56494 0.23262 0.32401 0.21601 0.11631 0.14124-0.0914 0.67294-0.27416 0.16615 0.0665 0.28247 0.22431 0.25755 0.19939 0.29908-0.0249 0.24924 0.0748 0.21601 0.29909 0.0997 0.88064-0.0997 0.54832 0.24924 0.59817 0.46524 0.49017 0.65632 0.0498 0.21601-0.0748 0.15785-0.0831 0.12462-0.0415 0.16616 0.0748 0.38216 0.44863 0.46524 0.12461 0.34063-0.0249 0.3157-0.0997 0.22431-0.60647-0.0831-0.49017-0.27416h-0.64802l-0.216 0.75602 0.24923 0.58987 0.0748 0.40708 0.0332 0.42371 0.0665 0.216 0.29909 0.14955 0.108 0.11631v0.43201l-0.13292 0.36555-0.53171 0.49847-0.108 0.35724 0.0249 0.39047-0.23263 0.17447-0.30739 0.75602-0.27416 0.12462-0.27416 0.0415-0.26586 0.13293-0.57324 0.54832-0.26585 0.0748-0.91388-0.13293-0.25754 0.0997-0.19939 0.26586-0.2077 0.79756 0.37386 0.57324 0.25754 0.2077 0.0831 0.44032-0.0665 0.4237-0.19108 0.22432-1.0883-0.79756-0.29077 0.0498-0.10801 0.4237-8e-3 0.4237 0.0332 0.40709-0.14123 0.39878-0.28247 0.19108-0.24093 0.22432-0.19108 0.32401-0.90557-0.45694-0.82248 0.0415-0.28247-0.0831-0.77263-1.2379-0.49848-0.45693-0.55663-0.10801-0.28247 0.24924-0.66463 8e-3 -0.5317-0.11631-1.0883-0.58155-0.24924-0.25755-0.29078-0.0581-0.26585 0.18277-0.26586 0.12462-1.1714 0.0415-0.4154 0.19939-0.62309-0.49847-0.19108-0.38217-0.22432-0.26585-0.0997 0.0498-0.0748 0.14123-0.10801 0.0914-0.58155 0.0166-1.8527-0.47356-0.24093-0.19939-0.19108-0.33232-0.0499-0.62309-0.0831-0.35724-0.47356-0.4237-0.15785-0.36555-0.0166-0.43201 0.13292-0.29078 0.59817-0.14123 0.2077-0.32401 0.14124-0.4154 0.41539-0.13293 0.44863 0.22432 0.39047-0.28247 0.23262-0.6314-8e-3 -0.70618-0.0831-0.73109 0.0415-0.88064 0.20769-0.81418 0.39048-0.92218 0.20769-0.29077 0.47356-0.22432 1.2046 0.13293 0.0914-0.108 0.39878-0.69787 0.0332-0.4237-0.15785-0.43201-0.0914-0.47356 0.0582-0.45693 0.11631-0.4154 0.25755-0.0249 0.29077 0.0332 0.54833-0.13293 0.4237-0.49016 0.0748-0.84741 0.0831-0.37386 0.83079-0.35724 0.50678-0.49016-0.0166-0.13293-0.12462-0.0332-0.15785-0.34063-0.0166-0.44032 0.0831-0.0997 0.0582-0.12462 0.14123-0.0831 1.0219-0.0166 0.3157-0.0997 0.0748-0.14954 0.0997-0.15785 0.15785-0.0249z" fill="#88a4bc"/>
  <rect class="sm_location_1" x="135.14" y="139.1" width="2.0936" height="2.0936" r="0" rx="0" ry="0" fill="#f09" opacity=".8"/>
 </g>
</svg>
