<?xml version="1.0" encoding="UTF-8"?>
<svg width="20.662mm" height="26.27mm" version="1.1" viewBox="0 0 20.662 26.27" xmlns="http://www.w3.org/2000/svg" xmlns:cc="http://creativecommons.org/ns#" xmlns:dc="http://purl.org/dc/elements/1.1/" xmlns:rdf="http://www.w3.org/1999/02/22-rdf-syntax-ns#">
 <metadata>
  <rdf:RDF>
   <cc:Work rdf:about="">
    <dc:format>image/svg+xml</dc:format>
    <dc:type rdf:resource="http://purl.org/dc/dcmitype/StillImage"/>
    <dc:title/>
   </cc:Work>
  </rdf:RDF>
 </metadata>
 <g transform="translate(-105.33 -136.54)" stroke-width=".26458">
  <path class="sm_state_POL3151" d="m117.99 136.69 0.0581 0.0499 0.0914 0.13293 0.0249 0.17446-0.0665 0.24093 0.19109 0.12462 0.58986 0.15785 0.13293-0.0498 0.108 0.10801 0.51509 0.19939 0.17447 0.0166v0.0831l-0.0665 0.12462 0.14123-0.0249 0.108 0.0498 0.0748 0.0748 0.0748 0.0166 0.11631-0.14123 0.0332 0.0582 0.13293 0.13293 0.14124-0.13293 0.0332 0.0997-0.0249 0.16615-0.0332 0.0415 0.23262 0.46525 0.15785 0.0498 0.39047-8e-3 0.15785 0.0914 0.14954 0.29909 0.17447 0.108 0.0332 0.14954 8e-3 0.15785 0.0748 0.16616 0.11631 0.50678 0.0914 0.23263-0.13293 0.0997-0.108 0.16616-0.14954 0.37385-0.0582 0.24924-8e-3 0.43201-0.0498 0.15785 0.0581 0.0914-0.0997 0.0498-0.0332 0.29078-0.0914 0.11631 0.12462 0.24093 0.15785 0.20769-0.0997 0.3074-0.15785 0.15785-0.17447 0.108-0.14123 0.16616-0.0665 0.24093-0.0415 0.30739 0.0831 0.15785 0.0166 0.0831-0.10801 0.0748 0.0249 0.0914 0.0914 0.14954-0.0997 0.13293-0.12462 0.0332v0.0997l0.0914 0.108 8e-3 0.12462-0.0415 0.36555 0.0332 0.19108 0.0665 0.18277 0.18278 0.3157h-0.11631l0.108 0.2077 0.13293 0.0498 0.108 0.0665 0.0499 0.25755 0.0582 0.19108 0.12462 0.0914 0.14954 0.0498 0.11631 0.0831-0.12462 0.26585 8e-3 0.0831 0.34063 0.49848 0.0665 0.15785-0.0914 0.0498-0.0582 0.0914-0.0166 0.13292 0.0499 0.18278-0.14955 0.0581-0.14123 0.15785-0.11631 0.19108-0.0415 0.18277 0.0499 0.27417 0.13293 0.0748h0.15785l0.14123 0.0914 0.45694 1.0052 0.19108 0.23263 0.41539 0.26585 0.39878 0.39878 0.0914 0.16616-0.14123 0.0665-0.0332 0.12462 0.12462 0.25754 0.216 0.34063 0.0748 0.17446 0.0997 0.54832-0.0415 0.19109 0.0665 0.0498 0.2077 0.11631 0.0914 0.14123 0.0249 0.22431 0.0499 0.17447 0.12462 0.19939 0.55663 0.5234 0.68956 0.38216 0.108 0.16616-0.0997 0.22432-0.25755 0.0498-0.27416 8e-3 -0.16616 0.0748-0.216-0.12462-0.23262 0.0249-0.19109 0.14954-0.0997 0.22431 0.0166 0.24924 0.12462 0.16616 0.19109 0.0914 0.23262 0.0332v0.0748l-0.10801 0.23262 0.11631 0.19939 0.22432 0.14123 0.22431 0.0582-0.0498 0.29078 0.0665 0.28247 0.2077 0.50678-0.19108 0.33232 0.0831 0.62309 0.0914 0.24093-0.0997 0.14955-0.15785 0.16615-0.53171 0.27417-0.0249 0.15785 0.0166 0.24923-0.0166 0.17447-0.0332 0.14123-0.18277 0.42371-0.44032 0.18277-1.4954 0.0166-0.28247 0.0914-0.14954 0.0748-0.108 0.10801-0.0914 0.19108-0.108 0.34893-0.8308-0.49017-0.26585-0.40709-0.5234-0.33231-0.60648-0.0665-0.47355 0.0415-0.216 0.0997-0.68125 0.77263-0.54002 0.43202-0.62309 0.13292-1.861-0.0582-1.1299-0.32401-0.0831-0.19108 0.28247-0.0665 0.12462-0.0748-0.21596-0.15786-1.1548 0.23262-0.29078-0.13292-0.216-0.33232-0.0582-0.32401 0.13293-0.27416 0.2077-0.27416 0.25754-0.0831 0.25755 0.0332 0.23262-0.13293-0.0997-0.3157-0.19108-0.36555-0.0249-0.18277 8e-3 -0.17447-0.0748-0.12461-1.3044-0.69787-1.9274-0.49017-0.15785-0.27416 0.38216-0.70617 0.11631-0.33232-0.26585-0.23262-0.29078-0.18277-0.32401-0.12462-0.32401 0.0166-0.54832 0.38217-0.61479-0.0332-1.0966-0.73941-0.0415-0.28247-0.2077-0.80587-0.0332-0.16615-0.0831-0.0582-8e-3 -0.15785 0.0582-0.10801 0.0581-0.56493-0.0249-0.25755-0.14955-0.11631v-0.0914l0.12462-0.0415 0.0997-0.13293-0.0332-0.18277-0.19939-0.50679-0.0665-0.4237-0.0748-0.23262-0.0166-0.108 8e-3 -0.14955 0.0997-0.30739 0.14954-0.82248 0.10801-0.2077 0.0748-0.0665 0.0914-0.0166-0.0166-0.27416 0.0997-0.40709 0.0499-0.37386-0.33231-0.39878 0.0166-0.32401 0.19939-0.15785 0.19939-0.28246 8e-3 -0.54002-0.25754-0.0249v-0.0914l0.12461-0.14953-0.0249-0.16616-0.14954-0.23262-0.0166-0.18278 8e-3 -0.15785-0.0332-0.11631-0.12462-0.0831-0.0831-8e-3 -0.19939 0.0914-0.14954 8e-3 -0.42371-0.0831-0.23262-0.108-0.11631-0.14955-0.108-0.17446-8e-3 -0.14124 0.0831-0.34062 0.29908-0.0748 0.29909 0.11631 0.59817 0.0997 0.58986-0.20769 0.2077-0.19939 0.0499-0.3074-0.4154-0.63971 0.3157-0.44862 0.45694-0.28247-0.29078-0.44032-0.19939-0.49848-0.0332-0.35724-0.16616-0.34893-0.13293-0.37386-0.0498-0.34062 0.58986-0.44032 0.6314-0.18278 1.1963 8e-3 1.1299-0.22431 0.4237 0.0748 0.29078-0.0914 0.78925-0.58986 0.3157-0.0415 0.91387 0.0914 0.45694-0.38217 0.0415-0.19939 0.0498-0.16615 0.14124-0.14955 0.14954-0.0997 0.33232 0.0748 0.97202 0.50678 0.32401-0.12462 0.27416-0.34893 0.23262-0.55663 0.78926-1.1631 0.26585-0.49847 0.108-0.0499 0.15785 0.0332 0.25755 0.15785h0.14954z" fill="#88a4bc"/>
  <rect class="sm_location_8" x="111.93" y="149.76" width="2.0936" height="2.0936" r="0" rx="0" ry="0" fill="#ff0299" opacity=".8"/>
 </g>
</svg>
