<?xml version="1.0" encoding="UTF-8"?>
<svg width="15.154mm" height="23.179mm" version="1.1" viewBox="0 0 15.154 23.179" xmlns="http://www.w3.org/2000/svg" xmlns:cc="http://creativecommons.org/ns#" xmlns:dc="http://purl.org/dc/elements/1.1/" xmlns:rdf="http://www.w3.org/1999/02/22-rdf-syntax-ns#">
 <metadata>
  <rdf:RDF>
   <cc:Work rdf:about="">
    <dc:format>image/svg+xml</dc:format>
    <dc:type rdf:resource="http://purl.org/dc/dcmitype/StillImage"/>
    <dc:title/>
   </cc:Work>
  </rdf:RDF>
 </metadata>
 <g transform="translate(-96.745 -125.24)" stroke-width=".26458">
  <path class="sm_state_POL3143" d="m109.15 126.66-0.16616 0.79756 0.0332 0.87233-0.80587 1.0385 0.24924 0.23262 0.18277 0.68125-0.0831 0.2077-0.15785 0.108-0.78094 0.24924-0.13293-0.0166-0.0582 0.12462-8e-3 0.3074-0.0332 0.29077 0.0332 0.76433 0.29078 0.80587 0.0997 0.47355 0.0665 0.49848v0.40708h-0.22432l-0.17446 0.12462 0.34893 0.6231 0.16616 0.39878 0.0166 0.8391-0.26586 0.78925-0.0415 0.19939-0.0166 0.2077-0.0997 0.39878v0.44862l0.0582 0.42371 0.19939 0.29077 0.22432 0.23263 0.45693 0.24923 0.14955 0.4154 0.19108 0.34893 0.29077 0.29909 0.3074 8e-3 0.14123-0.0665 0.14124 0.0914 8e-3 0.26585-0.0748 0.25754-0.0332 0.46525 0.11631 0.35724 0.35724 0.24093 0.37385 0.12462 0.60648-0.40709 0.54002 0.58986 0.25754 0.99695-0.39878 0.66463-0.50678 0.44032-0.65633 0.14955-0.45693-0.58987-0.0332-0.46524-0.21601-0.24093-1.2545-0.23262-0.16616 0.22431-0.11631 0.34894-0.24924 0.24923-0.29078 0.0997-0.18277 0.13293-0.81418 1.5951-0.91387 1.213-0.58986 0.14123-1.1631-0.63971-0.60647 0.2077-0.27417 0.33231-0.41539 0.72279-0.24093-0.0166-0.49017-0.42371h-0.23262l-1.3293 0.69787-0.15785 0.0914-0.0249-0.34893 0.0665-0.16616-0.0831-0.18277-0.15785-0.16616-0.12462-0.0997-0.19108-0.0914-0.38216-0.11631-0.19108-0.10801-0.17447-0.12461-0.54002-0.18278-0.18277-0.19108-0.04985-0.23262 0.06646-0.26586 0.16616-0.24923 0.09969-0.26586-0.01662-0.35724-0.08308-0.34062-0.108-0.22431-0.39878-0.34063-0.19108-0.21601-0.08308-0.34062-0.03323-0.35724-0.11631-0.14954-0.14954-0.10801-0.13293-0.20769-0.02492-0.28247 0.108-0.23262 0.47355-0.48186 0.15785-0.2077 0.12462-0.24093 0.06646-0.26585 0.03323-0.81418 0.04154-0.13293 0.18277-0.32401 0.03323-0.13292 0.04154-0.24093 0.06646-0.11631 0.14954-0.19108-0.54001-0.39878-0.08308-0.19939 0.04985-0.34894 0.09139-0.24093 0.03323-0.19939-0.12462-0.18277v-0.0831l0.16616-0.21601v-0.27416l-0.12462-0.24093-0.23262-0.0997-0.23262-0.0582-0.28247-0.14123-0.19108-0.2077 0.04985-0.24924-0.16616-0.39047-0.19939-0.59817-0.04985-0.54001 0.43201-0.37386 0.19939-0.32401 0.13293-0.3157-0.03323-0.14123-0.15785-0.14955 0.06646-0.3157 0.23262-0.48186-0.25754-0.216-0.04985-0.0498 0.2077-0.7311 0.17447-0.27416 0.70617-0.11631 0.4154-0.17446 0.64802-0.91388 0.53171-1.1548 0.80587-0.44862 1.3791 0.45693 0.43201-0.0665 0.5151-0.58986 0.30739-0.59817-0.22432-0.0415-0.16615-0.22432 0.47355-0.0249 1.404-0.48186 1.7031 8e-3 0.41539-0.30739 0.74772-0.95542 0.43201-0.34062 0.44863-0.0665 0.41539 0.0914 0.21601 0.68125z" fill="#88a4bc"/>
  <rect class="sm_location_15" x="101.41" y="129.41" width="2.0936" height="2.0936" r="0" rx="0" ry="0" fill="#f09" opacity=".8"/>
 </g>
</svg>
