<?xml version="1.0" encoding="UTF-8"?>
<svg width="19.881mm" height="16.831mm" version="1.1" viewBox="0 0 19.881 16.831" xmlns="http://www.w3.org/2000/svg" xmlns:cc="http://creativecommons.org/ns#" xmlns:dc="http://purl.org/dc/elements/1.1/" xmlns:rdf="http://www.w3.org/1999/02/22-rdf-syntax-ns#">
 <metadata>
  <rdf:RDF>
   <cc:Work rdf:about="">
    <dc:format>image/svg+xml</dc:format>
    <dc:type rdf:resource="http://purl.org/dc/dcmitype/StillImage"/>
    <dc:title/>
   </cc:Work>
  </rdf:RDF>
 </metadata>
 <g transform="translate(-90.601 -135.97)" stroke-width=".26458">
  <path class="sm_state_POL3170" d="m108.66 136.93-0.0914 1.0883-0.24924 0.61478-0.30739 0.53171-0.0581 0.7311 0.22432 1.944-0.0665 0.57325-8e-3 0.49847 0.0748 0.14124 0.0665 0.18277 0.17446 0.2077 0.24093 0.0166 0.30739 0.16616 0.10801 0.37386-0.82249 0.6314-0.14123 0.32401 0.24924 0.22431 0.88894 0.38217 0.49848 0.54001 0.28247 0.88895 0.0332 0.44863-0.0498 0.44862 0.14954 0.93049 0.3157 0.88064-0.15785 0.0665-0.11631-0.0332-0.30739 0.0665h-0.14124l-0.80587-0.23262-0.46524-0.24924-0.108-0.0249-0.14954 0.108-0.25755 0.38217-0.14954 0.13292-0.17447 0.0249-0.12462-0.0831-0.11631-0.13292-0.14954-0.0997-0.13293-0.0166-0.33231 0.0665-0.13293 0.0665-0.16616 0.18277 0.0997 0.11631 0.19108 0.11631 0.10801 0.19109-0.0748 0.11631-0.14955 0.0332h-0.17446l-0.13293 0.0332-0.16616 0.16615-0.27416 0.39048-0.17446 0.15785-0.19939 0.0748-0.14955-0.0332-0.13292-0.0997-0.13293-0.14124-0.15785-0.11631-0.13293-0.0166-0.14123 8e-3 -0.18278-0.0249-0.13292-0.0997-0.7311-0.88064-0.13293-0.0249-0.30739 0.0498-0.25754-0.0166-0.0831 0.0498-0.13293 0.15785-0.0914 0.0914-0.19939 0.0665-0.18278-0.0415-0.69786-0.35724-0.13293 0.0332 8e-3 0.21601-0.43201 0.0166-0.34062-0.13293-0.0997 8e-3 -0.0831 0.0582-0.0249 0.0831-0.0665 0.29909-0.0582 0.17446-0.0415 0.0582-0.63971 0.0582-0.12462 0.0665-0.17447 0.21601-0.08308 0.0748-0.18277-0.0166-0.06646 0.0415-0.15785 0.35724-0.108 0.29078-0.09969 0.12462-0.04985 0.44032-0.08308 0.3157-0.16616 0.12462-0.27416-0.13293-0.4237-0.39878-0.23262-0.12462-0.26585 0.0332-0.14954 0.108-0.27416 0.29078-0.18278 0.0665-0.38216-0.0249-0.2077-0.0831-0.108-0.14123 0.03323-0.17447 0.3157-0.50678 0.13293-0.0748 0.0083-0.12462-0.08308-0.10801-0.11631-0.0831-0.02492-0.0997 0.07477-0.14123-0.04154-0.61479-0.04985-0.216-0.07477-0.24093-0.07477-0.0581-0.27416 0.11631-0.16616 0.0166-0.18277-0.0166-0.47355-0.16616 0.01662-0.15785-0.0083-0.19108 0.04985-0.14954-0.33231-8e-3 -0.16616-0.0415-0.14123-0.11631-0.04985-0.0914-0.13293-0.39878-0.14954-0.64802-0.09969-0.25754-0.19108-0.12462-0.06646-0.0665-0.13293-0.24923-0.07477-0.0332-0.04154-0.14124-0.19939-0.13293-0.09969-0.23262 0.06646-0.26585 0.14124-0.29078 0.03323-0.33231-0.56494-0.0997-0.30739-0.14123-0.26585-0.24924-0.12462-0.39878-0.17447-0.30739-0.4154-0.16616-0.24924-0.44032-0.01662-0.43201-0.18277-0.22432-0.21601-0.0249-0.16616-0.21601 0.09139-0.43201 0.18277-0.37386 0.18277-0.27416 1.9607-2.2099-0.38216-0.53171-0.44032-0.44032 0.25754-0.19939 0.55663 0.0748 0.35724-0.51509 0.23262-0.46524 0.22431-0.33232 0.45694 0.26585h0.2077l0.216-0.0498 0.7311-0.56494 0.45694-0.0748 0.45694 0.0415 0.26585-0.0415 1.0468-0.66464-0.02492-0.23262-0.04985-0.28247 0.78094 8e-3 0.32401 0.17447 0.27416 0.29078 0.69786 0.216 0.63971 0.43201 0.37385 0.74771 0.14124 0.59818 0.14123 0.29908 0.37386 0.53171 0.15785 0.33231 0.60648 0.36555 1.0883 0.0249 0.24923-0.25755 0.0332-0.14123 0.0997-0.15785 0.26586-0.13293 0.11631-0.108 0.0332-0.2077 0.0665-0.0914 0.0997-0.0166 0.17446-0.17446 0.0499-0.22432 0.0581-0.0831 0.3157 0.30739 0.13293-0.0665 0.11631-0.11632 0.108-0.0748 0.13293 0.0831 0.108-0.0748 0.22432-0.0166 0.0831-0.0498 0.14954-0.16616 0.0831-0.0332 0.61478-0.0166 0.12462-0.0332 0.24924-0.23262 0.34063-0.16616 0.0831-0.0166 0.11631 0.0415 0.15785 0.17447 0.14954-0.0582 0.14123-0.19939 0.13293-0.0748 8e-3 -0.108 0.0499-0.0665 0.0914-0.0498 0.0997-0.0914 0.0415-0.18277 0.0831 0.0665h0.0499l0.0997-0.0665-8e-3 -0.15785z" fill="#88a4bc"/>
  <rect class="sm_location_5" x="96.315" y="140.55" width="2.0936" height="2.0936" r="0" rx="0" ry="0" fill="#ff0299" opacity=".8"/>
 </g>
</svg>
