<?xml version="1.0" encoding="UTF-8"?>
<svg width="31.371mm" height="32.867mm" version="1.1" viewBox="0 0 31.371 32.867" xmlns="http://www.w3.org/2000/svg" xmlns:cc="http://creativecommons.org/ns#" xmlns:dc="http://purl.org/dc/elements/1.1/" xmlns:rdf="http://www.w3.org/1999/02/22-rdf-syntax-ns#">
 <metadata>
  <rdf:RDF>
   <cc:Work rdf:about="">
    <dc:format>image/svg+xml</dc:format>
    <dc:type rdf:resource="http://purl.org/dc/dcmitype/StillImage"/>
    <dc:title/>
   </cc:Work>
  </rdf:RDF>
 </metadata>
 <g transform="translate(-77.297 -103.76)">
  <path class="sm_state_POL3148" d="m108.67 119.56-0.26585 0.49847-0.78926 1.1631-0.23262 0.55663-0.27416 0.34893-0.32401 0.12462-0.97202-0.50678-0.33232-0.0748-0.14954 0.0997-0.14124 0.14954-0.0499 0.16616-0.0415 0.19939-0.45693 0.38216-0.91387-0.0914-0.3157 0.0415-0.78926 0.58986-0.29077 0.0914-0.42371-0.0748-1.1299 0.22432-1.1963-8e-3 -0.6314 0.18277-0.58986 0.44032 0.04985 0.34063 0.13293 0.37385 0.16616 0.34894 0.03323 0.35724 0.19939 0.49847 0.29078 0.44032-0.45694 0.28247-0.3157 0.44863 0.4154 0.63971-0.04985 0.30739-0.2077 0.19939-0.58986 0.2077-0.59817-0.0997-0.29908-0.11631-0.29908 0.0748-0.08308 0.34062 0.0083 0.14124 0.108 0.17446 0.11631 0.14954 0.23262 0.10801 0.4237 0.0831 0.14954-8e-3 0.19939-0.0914 0.08308 8e-3 0.12462 0.0831 0.03323 0.11631-0.0083 0.15785 0.01662 0.18277 0.14954 0.23262 0.02492 0.16616-0.12462 0.14955v0.0914l0.25755 0.0249-0.0083 0.54001-0.19939 0.28247-0.19939 0.15785-0.01662 0.32401 0.33232 0.39878-0.04985 0.37385-0.0997 0.40709 0.01662 0.27416-0.09139 0.0166-0.07477 0.0665-0.108 0.2077-0.14954 0.82248-0.0997 0.3074-0.0083 0.14954 0.01662 0.108 0.07477 0.23262 0.06646 0.42371 0.19939 0.50678-2.6419 0.55663-1.3708-0.43201-0.63971-0.0582-0.56494-0.36555-0.04985-0.19939-0.03323-0.22431-0.24924-0.27416-0.07477-0.44863-0.24924-0.0831-0.25755 0.24924-0.24093 0.33231-0.27416 0.15785-1.1548 0.18278-0.99695-0.2077-0.21601-0.15785-0.17447-0.28247-0.19108-0.216-1.3625-0.8391-0.24923-0.6231-0.45694-0.16616-0.02492-0.39047 0.108-0.35724 0.53171-0.49848 0.13293-0.36555v-0.43201l-0.108-0.11631-0.29908-0.14954-0.06646-0.21601-0.03323-0.4237-0.07477-0.40709-0.24924-0.58986 0.21601-0.75602h0.64802l0.49017 0.27416 0.60648 0.0831 0.0997-0.22431 0.02492-0.3157-0.12462-0.34063-0.44863-0.46524-0.07477-0.38217 0.04154-0.16615 0.08308-0.12462 0.07477-0.15785-0.04985-0.21601-0.49017-0.65633-0.59817-0.46524-0.54832-0.24924-0.88064 0.0997-0.29908-0.0997-0.07477-0.216 0.02492-0.24924-0.19939-0.29908-0.22431-0.25755-0.06646-0.28247 0.27416-0.16616 0.09139-0.67294-0.11631-0.14123-0.32401-0.21601-0.56494-0.23262-0.13293 0.0332-0.11631-0.0665-0.16616-0.37386-0.03323-0.47355-0.09969-0.34893-0.23262-0.15785-0.29078-0.0831-0.25755-0.14124-0.19939-0.34062-0.22431-0.29078-0.30739 0.0249-0.26585 0.27416-1.7197 0.35724-0.76433-0.6231-0.4237-0.19939-0.87233-0.18277-0.79756-0.54832 0.04985-0.23262 0.03323-0.23263 0.61478-1.0136-0.03323-0.24924-0.17447-0.17447 0.04985-0.52339 0.21601-0.44863 0.55663-1.62 0.35724-0.0997-0.0083-0.44863-0.24093-0.58155-0.13293-0.25755-0.09139-0.28247 0.06646-0.28247 0.16616-0.18277 0.04154-0.50678-0.12462-0.55663 0.39878 0.0498 0.34893-0.29077 0.14954-0.23263 0.18277-0.17446 0.15785 0.0665 0.14954 0.108 0.15785 0.0249 0.08308-0.23262 0.04154-0.27416 0.02492-0.26586-0.06646-0.40709-0.0083-0.27416-0.04985-0.25754 0.4237-0.19939 0.39878-0.32401 0.28247-0.0748 0.24093-0.19939 0.216-0.42371 0.32401-0.0997 0.14124 0.0249 0.13293 0.0914 0.04985 0.12462 0.07477 0.0831 2.617 0.40709 0.62309-0.11632 0.24924-0.12461 0.21601-0.24924 0.13293-0.46524 0.25754-0.2077 0.3157 0.0332 0.30739-0.0831 1.1548-0.67294 0.27416-0.33232 0.29908-0.24093 0.59817 8e-3 0.5234-0.108 0.60648-0.34893h0.78925l0.74771-0.24093 0.62309-0.74772 0.7394 0.0665 0.37386-0.0582 0.34062-0.24093 0.23262-0.46524 0.2077-0.10801 0.99695-0.0831 0.108 0.48185 0.19108 0.44863 0.13293 0.54832 0.2077 1.5951 0.46524 1.1631 0.29908 0.58987 0.44032 0.23262 0.45694 0.0665 0.38216 0.29908-0.14123 0.24924 0.04154 0.34893 0.2077 0.37386 0.3157 0.17447 0.19939 0.216 0.12462 0.34063 0.11631 0.49847 0.216 0.40709 0.58986 0.30739 0.63141-0.0997 0.40708-0.44863 0.39878 0.30739-0.12461 0.75602 0.20769 0.29078 0.25755 0.18278 0.46524-0.23263 0.48186-0.13292 0.12462 0.63971 0.0498 0.71448 0.0997 0.48186 0.0332 0.50678-0.0249 0.29909 0.45694 0.49016 0.17446 0.24093 0.18278 0.15785 0.0582 0.0831 0.0166 0.13293-0.0581 0.216-8e-3 0.12462 0.0249 0.17447 0.0415 0.108 0.0665 0.0665 0.11631 0.0166 0.0249 0.0665-0.0498 0.44863 0.0581 0.14954 0.14123 0.19939 0.16616 0.12462 0.14124-0.0581 0.0997 0.15785 0.19939 0.0499 0.44031-0.0249 1.2877 0.26585 0.63971-0.0914 0.24924 0.0831 0.18277 0.18278 0.0831 0.30739 0.17447-0.0914 0.14954 0.0914 0.23262 0.28247-0.0415 0.0665-0.0665 0.2077 0.14124 0.0831 0.13293-0.0415z" fill="#88a4bc" stroke-width=".26458"/>
  <rect class="sm_location_0" x="90.353" y="119.09" width="2.0936" height="2.0936" r="0" rx="0" ry="0" fill="#f00" opacity=".8" stroke="#fff" stroke-width=".20936"/>
 </g>
</svg>
