<?xml version="1.0" encoding="UTF-8"?>
<svg width="14.165mm" height="15.42mm" version="1.1" viewBox="0 0 14.165 15.42" xmlns="http://www.w3.org/2000/svg" xmlns:cc="http://creativecommons.org/ns#" xmlns:dc="http://purl.org/dc/elements/1.1/" xmlns:rdf="http://www.w3.org/1999/02/22-rdf-syntax-ns#">
 <metadata>
  <rdf:RDF>
   <cc:Work rdf:about="">
    <dc:format>image/svg+xml</dc:format>
    <dc:type rdf:resource="http://purl.org/dc/dcmitype/StillImage"/>
    <dc:title/>
   </cc:Work>
  </rdf:RDF>
 </metadata>
 <g transform="translate(-104.04 -143.48)" stroke-width=".26458">
  <path class="sm_state_POL3167" d="m114.02 143.69 0.19108 0.33231 0.24093 0.19939 1.8527 0.47355 0.58155-0.0166 0.10801-0.0914 0.0748-0.14123 0.0997-0.0498 0.22431 0.26585 0.19108 0.38217 0.6231 0.49847-0.28247 1.0136-0.10801 0.12462-0.0582 0.19939 0.0499 0.29908 0.10801 0.24093-0.0582 0.46524-0.64802 0.42371-0.21601 0.46524-0.14954 0.81418-0.19939 0.54001 0.15785 0.49017 0.22432 0.29908 0.26585 0.2077 0.26585 0.28247 0.0914 0.47355-1.1963-8e-3 -0.24924 0.0582-0.108 0.29077 0.0914 0.22432-0.0166 0.24093-0.18277 0.0831-0.17447 0.0332-0.0748 0.26585 0.14123 1.6699-8e-3 0.65633-0.0914 0.38216-0.79756 0.37386-0.49847 0.37386-1.0385 0.22431-0.49847 0.96372-8e-3 0.216-0.14124-0.0332 0.0415 0.29078 0.0415 0.0166 0.13293-0.0166 0.0581 0.0914 0.0166 0.12462-0.0415 0.0582-0.26586 0.0831-0.33231 8e-3 -0.14954 0.0415-0.24924 0.216-0.29909 0.0914-0.29907-0.0665-0.54002-0.53171-0.0914-0.13292-0.0665-0.14955-0.0997-0.30739-0.16616-0.18277-0.0332-0.0748 0.108-0.18277-0.11631-0.0249-0.22432-0.10801-0.108-0.0332-0.24093 0.0748-0.13293-0.0582-0.39878-0.50678-0.0166-0.0997 0.0581-0.12462 0.0914-0.0498 0.39878-0.0166 0.22431-0.0831 0.34894-0.216 0.16616-0.14124 0.0748-0.19939-0.12462-0.23262-0.0914-0.0914-0.0166-0.13293 0.0166-0.11631 0.108-0.28247v-0.0748l-0.16615-0.23262-0.0499-0.0415-0.14124-0.0582-0.0499 0.0332-0.0665 0.19939-0.24924 0.34062-0.14123 0.11632-0.19108 0.0498-0.73941-0.13293-0.39878 0.0332-0.24093 0.29908-0.0831 0.0415-0.0914-0.0415-0.0748-0.24093-0.18278-0.14954-0.18277 0.0166-0.0914 0.24093-0.108-0.0831-0.0582-0.13293-0.0166-0.16615 0.0166-0.17447-0.12462-0.15785 0.14955-0.0665-0.17447-0.0665-0.38216 8e-3 -0.19939-0.0582-0.29078-0.18278-0.0831-0.0914-0.0499-0.108-0.0748-0.30739-0.0831-0.0665-0.24924 0.0499h-0.11631l-0.108-0.0581-0.19108-0.16616-0.0914-0.0499-0.84741-0.24093-0.19108 0.0249-0.12462-0.0748 0.0332-0.15785 0.59817-1.4871 0.43201-0.33232 0.50678-0.0831 0.29078-0.51509 0.19108-0.73109 0.59817-1.1382 0.68956-1.0219 0.29908-0.68956 0.39047-0.51509 0.26586-0.17447 0.13292-0.39878 0.0499-0.34062 0.0831-0.32401 0.48186-1.105 0.21601-0.23263 0.27416-0.0914 0.28247 0.0166 0.29077-0.0665 0.27416-0.17447 0.28247-0.0166 0.27416 0.14123 0.10801 0.29078 0.0498 0.3157 0.43202 0.35724 0.5317 0.0249 0.98034-0.35724z" fill="#88a4bc"/>
  <rect class="sm_location_6" x="111.07" y="148.75" width="2.0936" height="2.0936" r="0" rx="0" ry="0" fill="#f09" opacity=".8"/>
 </g>
</svg>
