<?xml version="1.0" encoding="UTF-8"?>
<svg width="20.263mm" height="23.602mm" version="1.1" viewBox="0 0 20.263 23.602" xmlns="http://www.w3.org/2000/svg" xmlns:cc="http://creativecommons.org/ns#" xmlns:dc="http://purl.org/dc/elements/1.1/" xmlns:rdf="http://www.w3.org/1999/02/22-rdf-syntax-ns#">
 <metadata>
  <rdf:RDF>
   <cc:Work rdf:about="">
    <dc:format>image/svg+xml</dc:format>
    <dc:type rdf:resource="http://purl.org/dc/dcmitype/StillImage"/>
    <dc:title/>
   </cc:Work>
  </rdf:RDF>
 </metadata>
 <g transform="translate(-107.04 -156.78)" stroke-width=".26458">
  <path class="sm_state_POL3152" d="m127.3 163.33-0.11631 0.18277-0.65632 0.71448-0.24093 0.19108-0.82249 0.63971-1.8942 2.0604-0.24924 0.38216-0.29908 0.24093-0.33232 0.36555-0.89726 1.321-0.34062 0.35724-0.0498 0.0997-0.0665 0.26585-0.0332 0.0914-0.0748 0.0665-0.14954 0.0582-0.0665 0.0498-0.0831 0.0997-0.50679 0.92218-0.14123 0.14123-0.0914 0.0415-0.17447 0.0332-0.0997 0.0831-0.0582 0.10801-0.14123 0.40708-0.6314 0.84741-0.19939 0.49017 0.15785 0.45693 0.0499 0.19109 0.0582 0.54001 0.0498 0.21601 0.108 0.16616 0.18277 0.19108 0.0415 0.0997 0.0415 0.19939 0.10801 1.1631-0.0332 0.19108-0.13293 0.38216-0.12462 0.44863-0.12462 0.27416-0.0499 0.15785 0.0914 0.0415 0.10801-0.14123 0.0914 0.108 0.26585 0.18277 0.24093 0.32401 0.15785 0.11631 0.36555 0.2077 0.0997 0.12462v0.108l-0.0748 0.24924-8e-3 0.16616 0.0332 0.12462 0.16616 0.29908-0.0997 0.19939-0.16616-0.0748-0.18278-0.16616-0.24093-0.108-0.14954-0.2077-0.0831-0.0831-0.0914-8e-3 -0.19108 0.0581-0.29909-0.0249-0.17446 0.0166-0.17447-0.0249-0.2077-0.13292-0.30739-0.34894-0.16616-0.0499-0.17446 0.16616-0.29078-0.14123-0.64802-0.0249-0.29911-0.0997-0.4237-0.4154-0.17447-0.0748-0.45693 0.0166-0.39047-0.11631-0.0582-0.0499-0.0166-0.0831 0.0166-0.17447-0.0914-0.0997-0.0665-8e-3 -0.19939 0.0249-0.17447-0.0498-0.27416-0.17446-0.58155-0.11631-0.23262-0.16616-0.0582-0.40709-0.108-0.44863-0.23262-0.38216-0.29909-0.28247-0.44862-0.22431-0.29909-0.28247-0.14954-0.0831-0.17447 0.0249-0.14123 0.13293-0.11631 0.14123-0.0831 0.0582-0.13293-0.0997-0.27416-0.43201-0.14124-0.14123-0.0831-0.0249-0.12462 0.0249-0.14955-0.0665-0.14954-0.14954-0.0831-0.0581-0.15785-0.0415-0.58986 0.0665-0.12462 0.0499-0.3157-0.88064-0.14954-0.93049 0.0499-0.44863-0.0332-0.44862-0.28247-0.88895-0.49847-0.54002-0.88895-0.38216-0.24924-0.22431 0.14124-0.32401 0.82248-0.6314-0.108-0.37386-0.30739-0.16616-0.24093-0.0166-0.17447-0.2077-0.0665-0.18278-0.0748-0.14123 8e-3 -0.49848 0.0665-0.57324-0.22432-1.944 0.0582-0.7311 0.30739-0.53171 0.24924-0.61478 0.0914-1.0883 0.0332-0.0166 0.50678-0.44032 0.15785 0.0665 0.2077-0.0415 0.2077-0.12462 0.15785-0.16616-0.108-0.26585 0.78925-0.35724 0.5317-0.13293 0.14955-0.13293 0.25754-0.30739 0.0997-0.19939 0.0415-0.25755 0.0581-0.19939 0.39878-0.46524 0.23262-0.39878 0.14124-0.108 0.216-0.0332 0.14955-0.0748 0.12462-0.19939 0.0997-0.23263 0.0582-0.20769 0.0665-0.51509-8e-3 -0.48186-0.0249-0.17447 1.0966 0.7394 0.61479 0.0332 0.54832-0.38217 0.32401-0.0166 0.32401 0.12461 0.29078 0.18278 0.26585 0.23262-0.11631 0.33232-0.38217 0.70617 0.15785 0.27416 1.9274 0.49017 1.3043 0.69786 0.0748 0.12462-8e-3 0.17447 0.0249 0.18277 0.19109 0.36555 0.0997 0.3157-0.23263 0.13293-0.25754-0.0332-0.25755 0.0831-0.20769 0.27416-0.13293 0.27416 0.0582 0.32401 0.21601 0.33231 0.29077 0.13293 1.1548-0.23262 0.21601 0.15785-0.12462 0.0748-0.28247 0.0665 0.0831 0.19109 1.1299 0.324 1.861 0.0582 0.62309-0.13293 0.54002-0.43201 0.68125-0.77264 0.216-0.0997 0.47355-0.0415 0.60648 0.0665 0.5234 0.33232 0.26585 0.40709z" fill="#88a4bc"/>
  <rect class="sm_location_7" x="112.54" y="166.12" width="2.0936" height="2.0936" r="0" rx="0" ry="0" fill="#f09" opacity=".8"/>
 </g>
</svg>
