<?xml version="1.0" encoding="UTF-8"?>
<svg width="19.856mm" height="29.394mm" version="1.1" viewBox="0 0 19.856 29.394" xmlns="http://www.w3.org/2000/svg" xmlns:cc="http://creativecommons.org/ns#" xmlns:dc="http://purl.org/dc/elements/1.1/" xmlns:osb="http://www.openswatchbook.org/uri/2009/osb" xmlns:rdf="http://www.w3.org/1999/02/22-rdf-syntax-ns#" xmlns:xlink="http://www.w3.org/1999/xlink">
 <defs>
  <linearGradient id="linearGradient935" x1="47.266" x2="49.36" y1="109.85" y2="109.85" gradientUnits="userSpaceOnUse">
   <stop stop-color="#fff" offset="0"/>
  </linearGradient>
 </defs>
 <metadata>
  <rdf:RDF>
   <cc:Work rdf:about="">
    <dc:format>image/svg+xml</dc:format>
    <dc:type rdf:resource="http://purl.org/dc/dcmitype/StillImage"/>
    <dc:title/>
   </cc:Work>
  </rdf:RDF>
 </metadata>
 <g transform="translate(-34.673 -91.892)" stroke-width=".26458">
  <path class="sm_state_POL3150" d="m48.356 121.24-0.06646 0.0415h-0.14954l-0.25754-0.15785-0.15785-0.0332-0.108 0.0499-0.12462 0.0831-0.13293 0.0415-0.14124-0.0831 0.06646-0.2077 0.04154-0.0665-0.23262-0.28247-0.14954-0.0914-0.17447 0.0914-0.08308-0.30739-0.18278-0.18277-0.24924-0.0831-0.63971 0.0914-1.2877-0.26586-0.44032 0.0249-0.19939-0.0499-0.09969-0.15785-0.14124 0.0581-0.16616-0.12462-0.14123-0.19939-0.05815-0.14954 0.04985-0.44863-0.02492-0.0665-0.11631-0.0166-0.06646-0.0665-0.04154-0.108-0.02492-0.17446 0.0083-0.12462 0.05815-0.21601-0.01662-0.13293-0.05816-0.0831-0.18277-0.15785-0.17447-0.24093-0.45694-0.49016 0.02492-0.29909-0.03323-0.50678-0.09969-0.48186-0.04985-0.71448-0.12462-0.63971-0.48186 0.13292-0.46524 0.23263-0.25754-0.18278-0.2077-0.29078 0.12462-0.75602-0.39878-0.30739-0.40709 0.44863-0.6314 0.0997-0.58986-0.30739-0.21601-0.40709-0.11631-0.49847-0.12462-0.34063-0.19939-0.216-0.3157-0.17447-0.2077-0.37385-0.04154-0.34894 0.14124-0.24923-0.38216-0.29909-0.45694-0.0665-0.44032-0.23262-0.29908-0.58987-0.46524-1.1631-0.2077-1.5951-0.13293-0.54832-0.19108-0.44863-0.108-0.48185 0.60648-0.26586 1.1797 0.0748 0.5234-0.18277 0.24093-0.19939 0.25754-0.108 0.62309-0.0914 1.429-0.98865 0.79756-0.90556 2.3096-1.4373 0.47355-0.50678 0.29078-0.81417 0.33232-0.64802 0.03323-0.65633-0.88064-1.2296-0.4154-0.4154-0.09139-0.39047-0.04154-0.4237-0.8391-1.1216 0.78094-1.105 1.8444-0.25754 0.54832-0.37386 0.47355-0.49848 0.2077-0.68956-0.02492-0.108 0.22431-0.11631 0.17447 0.02492 0.49017 0.25755 0.09139 0.0083 0.19108-0.04154 0.08308 0.02492 0.09139 0.09139 0.08308 0.21601 0.04985 0.09139 0.09139 0.06646 0.28247 0.03323 0.05816 0.07477-0.08308 0.29908v0.14954l0.14954 0.2077h0.19108l0.19939-0.08308 0.16616-0.03323 0.14954 0.06646 0.51509 0.43201 0.3157 0.19939 0.66463 0.24924 0.3157 0.27416 0.08308 0.12462 0.14954 0.29078 0.07477 0.108 0.09139 0.05815 0.17447 0.04985 0.07477 0.04154 0.14124 0.2077 0.108 0.28247 0.09139 0.3157 0.06646 0.29908 0.12462 0.65632v0.32401l-0.12462 0.21601-0.0997 0.08308-0.08308 0.11631-0.0083 0.14954 0.03323 0.12462 0.06646 0.108 0.09139 0.07477 0.07477 0.13293-0.04154 0.15785 0.0083 0.40709 0.09139 0.34893 0.108 0.32401 0.08308 0.34893 0.07477 0.74772 0.09139 0.29077 0.19939 0.29078 0.01662 0.86402 0.19939 0.97203 0.69786 2.1684 0.39047 0.81417 0.16616 0.44032 0.33232 1.3043 0.14954 0.39878 0.14954 0.19939 0.08308 0.19109 0.05815 0.20769 0.0997 0.2077 0.14954 0.16616 0.14124 0.108 0.08308 0.16616-0.01662 0.34063-0.07477 0.19939-0.0997 0.16615-0.07477 0.18278-0.01662 0.27416 0.07477 0.23262 0.24924 0.32401 0.09139 0.19939 0.01662 0.108-0.01662 0.25755 0.06646 0.38216-0.01662 0.19109-0.09139 0.18277-0.02492 0.108 0.0083 0.14954 0.05816 0.14955 0.02492 0.108 0.08308 2.0687-0.108 0.58986-0.33232 0.40709-1.0966 0.74771-1.3874 0.39878-0.7311 0.43202-0.7311 0.60647-1.0053 1.5536-0.33232 0.40709-0.14954 0.24093-0.39047 0.78925z" fill="#88a4bc"/>
  <rect class="sm_location_10" x="47.266" y="108.8" width="2.0936" height="2.0936" r="0" rx="0" ry="0" fill="#f09" opacity=".8" stroke="url(#linearGradient935)"/>
 </g>
</svg>
