<?xml version="1.0" encoding="UTF-8"?>
<svg width="23.461mm" height="19.848mm" version="1.1" viewBox="0 0 23.461 19.848" xmlns="http://www.w3.org/2000/svg" xmlns:cc="http://creativecommons.org/ns#" xmlns:dc="http://purl.org/dc/elements/1.1/" xmlns:rdf="http://www.w3.org/1999/02/22-rdf-syntax-ns#">
 <metadata>
  <rdf:RDF>
   <cc:Work rdf:about="">
    <dc:format>image/svg+xml</dc:format>
    <dc:type rdf:resource="http://purl.org/dc/dcmitype/StillImage"/>
    <dc:title/>
   </cc:Work>
  </rdf:RDF>
 </metadata>
 <g transform="translate(-172.72 -207.79)" stroke-width=".26458">
  <path class="sm_state_POL3140" d="m194.21 215.94 0.0332-0.13293-0.19939 0.0249-0.73109-0.0914-0.19939 0.23262-0.0582 0.48186 0.18277 0.54001 0.16616 0.29909 0.0914 0.35724-0.0997 0.25754-0.12462 0.23262-0.36555 0.36555-0.13293 0.19939 0.0249 0.27416 0.14955 0.60648 0.28247 0.45694 0.39878 0.24093 0.4237 0.0498 0.21601 0.29908-0.16616 0.54832 0.29908 0.14955 0.81418-0.0665 0.41539 0.108-0.0332 0.23262v0.23262l-0.0997 0.18278-0.14954 0.15785-0.13293 0.39878-0.0997 0.15785-0.0166 0.22431-0.46524 0.2077-0.66463-0.0498-0.34893 0.22431-0.29078 0.3157-1.2213 2.2847-0.44862 0.19939-0.94711 0.0581-0.44862-0.18277-0.25755-0.16616-0.54001-0.56494-0.14124-0.0831-0.108-0.13293-0.16616-0.0997-0.67294-0.0914-0.47355 0.17447-0.30739 0.19939-0.70618-0.4237-1.4871-0.24924-0.27417-0.25755-0.24092-0.30739-0.29078-0.0332-1.404 0.21601-1.0551-0.2077-0.22432 0.17446-0.33231 0.6231-0.57325 0.2077-0.26585 0.24923-0.0415 0.18278-0.0332 0.19939-8e-3 0.29908-0.51507 0.20771-1.1465-0.30739-0.30739 0.0332-0.22432 0.32401-0.2077 0.44032-0.24923 0.87233-0.23262 0.14123-0.36555-0.44032-0.44032-0.24093-1.6865-0.0665-0.48186-0.29909-0.34062-0.60647-0.39878-0.49017-0.14955-1.5204 0.34894-0.34893 0.24923-0.44032-0.0997-0.29909-0.14124-0.23262-0.16615-0.0831-8e-3 -0.27416 0.41539-0.19939 0.45694 0.0665-0.15785-0.34063-0.19108-0.27416-0.23262-0.2077-0.3074-0.6314-0.19939-0.24093-0.35724-0.25755v-0.77263l-0.0665-0.78095-0.5234-1.6034 1.1548-0.28247 0.13293-0.2077-0.0332-0.34893-0.15786-0.22432-0.0914-0.19939 0.0582-0.25754 0.22432-0.22432 0.0831-0.38216-0.0582-0.68125-0.25754-0.5234-0.68125-0.98864-0.58987-1.1963 0.61479-0.24093 0.34893-0.0665 0.3157-0.10801 0.78926-0.87233 2.5007-1.1797 3.1321-0.58986 1.404-0.48186 2.2099-0.2077h1.3625l0.18277 0.0665 0.29909 0.26586 0.11631 0.0581 0.16616 0.0415 2.8329 1.6948 0.51509 0.67294 0.0831 0.15785 0.0831 0.22431 8e-3 0.19108-0.14954 0.0665-0.12461-0.24924-0.14955-0.108-0.0997-0.27416-0.14124-0.17447-0.39047-0.66463-0.0748-0.0415-0.29078-0.0582-0.0748-0.0332-0.0831-0.13293-0.23262-0.0831-0.49017-0.34062-0.49016-0.23262-0.0748-0.10801-0.27417-0.20769-0.0665-0.0332-0.0997 0.0415-0.0582 0.0748-0.11631 0.40708-0.0166 0.0997v0.2077l0.0498 0.0498 0.19939 0.0914 0.14123 0.23262 0.11632 0.25755-0.0332 0.2077v0.0914l0.0997 0.10801-0.0498 0.27416 0.0914 0.12462 0.15785-0.0332 0.14123-0.18277-0.0498 0.24093 0.0665 0.19108 0.0997 0.15785 0.21601 0.64802 0.0582 0.14123-0.0332 0.32401 8e-3 0.56494 0.0582 0.53171 0.11631 0.24093 0.12461 0.0415 0.25755 0.19108 0.12462 0.0499 0.11631 8e-3 0.13293 0.0415 0.12462 0.0831 0.0498 0.12462 0.13292 0.19108 1.3957 0.45693 0.3074 0.0166 0.26585-0.14124 0.0665 0.0748 0.0997 0.0498 0.22431 0.0748 3.1073-0.46524 0.68125-0.33232 0.32401-0.0831 0.26585-0.11632 0.50678-0.5317 0.14124-0.0665 0.0914 0.0748-1.4705 1.1382-0.35724 0.18277-0.34894 0.0997-0.72279 0.0665-0.34062 0.13293v0.0831l0.19108 0.25754 0.0914 0.0498-0.0914 0.0831-0.0249 0.19939 0.2077 0.12462 0.7311 0.0914 0.19939-0.0249v0.108z" fill="#88a4bc"/>
  <rect class="sm_location_12" x="186.95" y="213.45" width="2.0936" height="2.0936" r="0" rx="0" ry="0" fill="#f09" opacity=".8"/>
 </g>
</svg>
