<?xml version="1.0" encoding="UTF-8"?>
<svg width="16.109mm" height="21.352mm" version="1.1" viewBox="0 0 16.109 21.352" xmlns="http://www.w3.org/2000/svg" xmlns:cc="http://creativecommons.org/ns#" xmlns:dc="http://purl.org/dc/elements/1.1/" xmlns:rdf="http://www.w3.org/1999/02/22-rdf-syntax-ns#">
 <metadata>
  <rdf:RDF>
   <cc:Work rdf:about="">
    <dc:format>image/svg+xml</dc:format>
    <dc:type rdf:resource="http://purl.org/dc/dcmitype/StillImage"/>
    <dc:title/>
   </cc:Work>
  </rdf:RDF>
 </metadata>
 <g transform="translate(-92.487 -118.59)" stroke-width=".26458">
  <path class="sm_state_POL3146" d="m106.82 121.65 0.70617 0.13293 0.0997 0.0582 0.0332 0.14954v0.15785l-0.0415 0.108-0.56494 0.0914-0.30739 0.58986 0.22431 0.27416 0.6231 0.17447 0.29077 0.22431 0.22432 0.51509 0.39878 0.48186-0.33232 0.0498-0.57325 0.48186-0.16615 0.35724 0.29077 0.14954 0.56494 0.0831 0.23262 0.0914 0.0498 0.28247 0.0249 0.23262-1.0468 0.66463-0.26586 0.0415-0.45693-0.0415-0.45694 0.0748-0.7311 0.56494-0.216 0.0499h-0.2077l-0.45693-0.26585-0.22432 0.33231-0.23262 0.46525-0.35724 0.51509-0.55663-0.0748-0.25755 0.19939 0.44032 0.44032 0.38217 0.5317-1.9607 2.2099-0.18277 0.27416-0.18278 0.37386-0.0914 0.43201 0.16616 0.216 0.21601 0.0249 0.18277 0.22432 0.0166 0.43201 0.24924 0.44032 0.41539 0.16616 0.17447 0.30739 0.12462 0.39878 0.26585 0.24924 0.30739 0.14123 0.56494 0.0997-0.0332 0.33232-0.14123 0.29078-0.0665 0.26585 0.0997 0.23262 0.19939 0.13293 0.0415 0.14123-0.0914 8e-3 -0.0332 0.0582-0.71449 0.79756-0.0665 0.0498-0.19939 0.0665-0.25754-8e-3 -0.15785 0.0415-0.13293 0.0665-0.12462 0.108-0.108 0.18278-0.13293 0.41539 0.0582 0.11632-0.0582 0.108-0.12461 8e-3 -0.0582 0.24924-0.0249 0.15785-0.0582 0.0997-0.25754 0.108-0.2077 0.0415-0.0831-8e-3 -0.24924-0.15785-0.0748-0.0332-0.17447 0.0498-0.324 0.18277-0.2077 0.0166-0.16616-0.0332-0.0415-0.14123 0.0332-0.4154-0.0249-0.19108-0.0332-0.17447-8e-3 -0.18277 0.0665-0.2077-0.24094-0.14955-0.81418-0.0748 0.03323-0.216-0.02492-0.26586-0.11631-0.54001-0.13293-0.34063-0.04154-0.12462-0.05816-0.44032-0.03323-0.0997-0.12462-0.0914-0.12462 0.0249-0.13293 0.0581-0.11631 8e-3 -0.108-0.0665-0.15785-0.19109-0.108-0.0831-0.12462-0.0415-0.24924-0.0166-0.11631-0.0831-0.04985-0.0914-0.08308-0.37385-0.19108-0.40709-0.14954-0.39047v-0.34063l0.22431-0.26585-0.21601-0.11631-0.03323-0.15785 0.01662-0.19939-0.04985-0.23262-0.12462-0.0748-0.32401 0.20769h-0.19122l-0.61479-0.34062-0.32401-0.108-0.29908 0.0415 0.02492 0.0415-0.23262 0.19939-0.12462 0.0249-0.16616-0.13293-0.04154-0.0914-0.09139-0.26585-0.0997-0.0748-0.19108-0.0415-0.09969-0.0415-0.26585-0.22431-0.12462-0.0748-0.5234-0.0997-0.108-0.12462 0.04985-0.23262-0.48186-0.32401-0.11631-0.0249 0.0083-0.21601 0.49848-0.96372 1.0385-0.22431 0.49848-0.37386 0.79756-0.37385 0.09139-0.38217 0.0083-0.65632-0.14124-1.6699 0.07477-0.26586 0.17447-0.0332 0.18277-0.0831 0.01662-0.24093-0.09139-0.22431 0.108-0.29078 0.24924-0.0581 1.1963 8e-3 -0.09139-0.47355-0.26585-0.28247-0.26585-0.20769-0.22431-0.29909-0.15785-0.49017 0.19939-0.54001 0.14954-0.81418 0.21601-0.46524 0.64802-0.4237 0.05816-0.46525-0.108-0.24093-0.04985-0.29908 0.05816-0.19939 0.108-0.12462 0.28247-1.0136 0.4154-0.19939 1.1714-0.0415 0.26585-0.12461 0.26585-0.18278 0.29078 0.0582 0.24923 0.25754 1.0883 0.58156 0.53171 0.11631 0.66463-8e-3 0.28247-0.24924 0.55663 0.108 0.49847 0.45694 0.77264 1.2379 0.28247 0.0831 0.82248-0.0415z" fill="#88a4bc"/>
  <rect class="sm_location_4" x="100.38" y="127.81" width="2.0936" height="2.0936" r="0" rx="0" ry="0" fill="#f09" opacity=".8"/>
 </g>
</svg>
