<?xml version="1.0" encoding="UTF-8"?>
<svg width="17.43mm" height="14.588mm" version="1.1" viewBox="0 0 17.43 14.588" xmlns="http://www.w3.org/2000/svg" xmlns:cc="http://creativecommons.org/ns#" xmlns:dc="http://purl.org/dc/elements/1.1/" xmlns:rdf="http://www.w3.org/1999/02/22-rdf-syntax-ns#">
 <metadata>
  <rdf:RDF>
   <cc:Work rdf:about="">
    <dc:format>image/svg+xml</dc:format>
    <dc:type rdf:resource="http://purl.org/dc/dcmitype/StillImage"/>
    <dc:title/>
   </cc:Work>
  </rdf:RDF>
 </metadata>
 <g transform="translate(-104.68 -129.53)" stroke-width=".26458">
  <path class="sm_state_POL3149" d="m121.83 132.63 0.0332 0.18278-0.0997 0.13292-0.12462 0.0415v0.0914l0.14954 0.11631 0.0249 0.25755-0.0581 0.56494-0.0582 0.108 8e-3 0.15785 0.0831 0.0582 0.0332 0.16616 0.2077 0.80587 0.0415 0.28247 0.0249 0.17447 8e-3 0.48185-0.0665 0.5151-0.0582 0.20769-0.0997 0.23262-0.12462 0.19939-0.14954 0.0748-0.21601 0.0332-0.14123 0.108-0.23263 0.39878-0.39878 0.46524-0.0582 0.19939-0.0415 0.25755-0.0997 0.19939-0.25754 0.30739-0.14954 0.13293-0.53171 0.13293-0.78925 0.35724 0.108 0.26585-0.15785 0.16616-0.2077 0.12462-0.2077 0.0415-0.15785-0.0665-0.50678 0.44032-0.0332 0.0166-0.14954 0.0166 8e-3 0.15785-0.0997 0.0665h-0.0499l-0.0831-0.0665-0.0415 0.18277-0.0997 0.0914-0.0914 0.0498-0.0499 0.0665-8e-3 0.108-0.13293 0.0748-0.14123 0.19939-0.14955 0.0582-0.15785-0.17446-0.11631-0.0415-0.0831 0.0166-0.34062 0.16616-0.24924 0.23262-0.12462 0.0332-0.61478 0.0166-0.0831 0.0332-0.14954 0.16616-0.0831 0.0499-0.22432 0.0166-0.108 0.0748-0.13293-0.0831-0.108 0.0748-0.11631 0.11631-0.13293 0.0665-0.3157-0.3074-0.0581 0.0831-0.0498 0.22432-0.17447 0.17446-0.0997 0.0166-0.0665 0.0914-0.0332 0.2077-0.11631 0.10801-0.26585 0.13292-0.0997 0.15785-0.0332 0.14124-0.24917 0.25752-1.0883-0.0249-0.60648-0.36555-0.15785-0.33232-0.37385-0.5317-0.14124-0.29909-0.14123-0.59817-0.37386-0.74771-0.63971-0.43201-0.69786-0.21601-0.27417-0.29078-0.324-0.17446-0.78095-8e-3 -0.23262-0.0914-0.56494-0.0831-0.29078-0.14954 0.16616-0.35724 0.57325-0.48186 0.33232-0.0498-0.39878-0.48186-0.22432-0.51509-0.29077-0.22431-0.6231-0.17447-0.22431-0.27416 0.30739-0.58986 0.56494-0.0914 0.0415-0.108v-0.15785l-0.0332-0.14954-0.0997-0.0582-0.70617-0.13292 0.19108-0.32401 0.24093-0.22432 0.28247-0.19108 0.14123-0.39878-0.0332-0.40709 8e-3 -0.4237 0.108-0.4237 0.29078-0.0499 1.0883 0.79756 0.19108-0.22432 0.0665-0.4237-0.0831-0.44032-0.25754-0.2077-0.37386-0.57324 0.2077-0.79756 0.19939-0.26586 0.25755-0.0997 0.91387 0.13293 0.26585-0.0748 0.57325-0.54832 0.26585-0.13293 0.27416-0.0415 0.27416-0.12462 0.30739-0.75602 0.23263-0.17447 0.45693 0.16616 0.24924 0.62309 1.3625 0.8391 0.19108 0.21601 0.17447 0.28247 0.216 0.15785 0.99695 0.20769 1.1548-0.18277 0.27416-0.15785 0.24093-0.33232 0.25755-0.24923 0.24924 0.0831 0.0748 0.44862 0.24923 0.27416 0.0332 0.22432 0.0498 0.19939 0.56494 0.36555 0.63971 0.0581 1.3708 0.43201z" fill="#88a4bc"/>
  <rect class="sm_location_9" x="110.9" y="133.89" width="2.0936" height="2.0936" r="0" rx="0" ry="0" fill="#f09" opacity=".8"/>
 </g>
</svg>
