<?xml version="1.0" encoding="UTF-8"?>
<svg width="30.498mm" height="18.783mm" version="1.1" viewBox="0 0 30.498 18.783" xmlns="http://www.w3.org/2000/svg" xmlns:cc="http://creativecommons.org/ns#" xmlns:dc="http://purl.org/dc/elements/1.1/" xmlns:rdf="http://www.w3.org/1999/02/22-rdf-syntax-ns#">
 <metadata>
  <rdf:RDF>
   <cc:Work rdf:about="">
    <dc:format>image/svg+xml</dc:format>
    <dc:type rdf:resource="http://purl.org/dc/dcmitype/StillImage"/>
    <dc:title/>
   </cc:Work>
  </rdf:RDF>
 </metadata>
 <g transform="translate(-98.144 -131.22)" stroke-width=".26458">
  <path class="sm_state_POL3139" d="m128.62 131.8 0.0249 0.10801-0.2077 0.68955-0.47355 0.49848-0.54833 0.37386-1.8444 0.25754-0.78095 1.105 0.8391 1.1216 0.0415 0.42371 0.0914 0.39047 0.4154 0.41539 0.88064 1.2296-0.0332 0.65632-0.33232 0.64802-0.29078 0.81418-0.47355 0.50678-2.3096 1.4373-0.79756 0.90556-1.429 0.98864-0.62309 0.0914-0.25755 0.10801-0.24093 0.19939-0.5234 0.18277-1.1797-0.0748-0.60648 0.26585-0.99695 0.0831-0.2077 0.10801-0.23262 0.46524-0.34062 0.24093-0.37386 0.0582-0.7394-0.0665-0.6231 0.74771-0.74771 0.24093h-0.78925l-0.60648 0.34893-0.5234 0.10801-0.59817-8e-3 -0.29908 0.24093-0.27417 0.33231-1.1548 0.67294-0.30739 0.0831-0.3157-0.0332-0.25755 0.2077-0.13292 0.46524-0.21601 0.24924-0.24924 0.1246-0.62309 0.11631-2.617-0.40709-0.0748-0.0831-0.0498-0.12462-0.13293-0.0914-0.14123-0.0249-0.32401 0.0997-0.21601 0.4237-0.24093 0.19939-0.28247 0.0748-0.12462-1.2628-0.4237-1.08-0.46524-0.32401-0.94711-0.24924-0.88063-0.54001-0.63141-0.2077-0.15785-8e-3 -0.19939-0.0831-0.12462-0.18277-0.24924-0.48186-0.2077-0.58986-0.71448-1.404 1.2213-2.2847 0.29078-0.3157 0.34893-0.22431 0.66463 0.0498 0.46525-0.2077 0.0166-0.22432 0.0997-0.15785 0.13293-0.39878 0.14954-0.15785 0.0997-0.18277v-0.23262l0.0332-0.23262-0.41539-0.10801-0.81418 0.0665-0.29908-0.14955 0.16616-0.54832-0.21601-0.29908-0.4237-0.0498-0.39878-0.24093-0.28247-0.45694-0.14954-0.60647-0.02492-0.27416 0.13293-0.19939 0.36555-0.36555 0.12462-0.23262 0.09969-0.25755-0.09139-0.35724-0.16616-0.29909-0.18277-0.54001 0.05815-0.48186 0.19939-0.23262 0.73109 0.0914 0.19939-0.0249-0.0332 0.13293-0.0748 0.108-0.0332 0.0665-0.0332 0.17447v0.2077l0.11631-0.13293 0.14123-0.36555 0.0997-0.12461 0.20769-0.34063 0.21601-0.2077 0.16616-0.0831 0.0498-0.0166 0.63971-0.40709 0.14123-0.0582 0.32401-0.0415 0.53171-0.39878 0.11631-0.0415 0.11631-0.0166 0.0499-0.0498 0.0332-0.0665 0.0665-0.18278 0.0831-0.0831 0.0665-0.0498-8e-3 -0.0748-0.0332-0.17447 0.12462-8e-3 4.9183 0.25755 4.777 0.25754 2.9575 0.15785 3.5891 0.19109 4.6027 0.24923 3.4893 0.18278 0.56493-0.19108 0.15785-0.12462z" fill="#88a4bc"/>
  <rect class="sm_location_11" x="113.42" y="139.42" width="2.0936" height="2.0936" r="0" rx="0" ry="0" fill="#f09" opacity=".8"/>
 </g>
</svg>
