<?xml version="1.0" encoding="UTF-8"?>
<svg width="26.918mm" height="34.278mm" version="1.1" viewBox="0 0 26.918 34.278" xmlns="http://www.w3.org/2000/svg" xmlns:cc="http://creativecommons.org/ns#" xmlns:dc="http://purl.org/dc/elements/1.1/" xmlns:rdf="http://www.w3.org/1999/02/22-rdf-syntax-ns#">
 <metadata>
  <rdf:RDF>
   <cc:Work rdf:about="">
    <dc:format>image/svg+xml</dc:format>
    <dc:type rdf:resource="http://purl.org/dc/dcmitype/StillImage"/>
    <dc:title/>
   </cc:Work>
  </rdf:RDF>
 </metadata>
 <g transform="translate(-84.059 -112.13)" stroke-width=".26458">
  <path class="sm_state_POL3144" d="m93.347 112.23 0.39878 0.49016 0.34062 0.60648 0.48186 0.29909 1.6865 0.0665 0.44032 0.24093 0.36555 0.44032-0.22431 0.51509-0.59817 0.78925 0.0997 0.4154 0.69786 0.54832 0.39878 0.89726-0.75602 0.63971 0.07477 0.58986 0.25754 0.49016-0.11631 0.85572-0.37386 0.86402 0.67294 0.24093 0.62309 0.47355 0.40709 0.89726-0.17447 0.96372-0.0997 0.19108-0.13293 0.0499-0.14954-8e-3 -0.14123 0.0997-0.04985 0.35724 0.29908 0.28247 0.12462 0.32401 0.16616 0.26585 0.33232 0.0665 0.33232-0.11631 0.14954-0.13292 0.25755 0.22431 0.07477 0.18277 0.03323 0.22432 0.06646 0.0831 0.09139 0.0498 0.53171 0.18277 0.57325 0.0332 0.62309 0.34062 0.84741 0.77264 0.29078 0.15785 0.30739 0.0166 0.28247 0.11631 0.24093 0.29909 0.26585 0.25754 0.8391 0.21601 0.28247-0.12462 0.48186-0.56494 0.15785 0.0415 0.11631 0.0831 0.0665 0.24924 0.0997 0.216 0.15785 0.23263 0.19939 0.0665 0.12462-0.0748 0.0831-0.14955 0.14954-0.0665 0.15785-0.0166 0.29078 0.13293 0.24924 0.29909 1.3708 1.1216 0.22432 0.51509 0.29908-0.0249 0.86403-0.36554 0.29077-0.0415 0.78925 0.59817 0.0166 0.44031 0.15785 0.34063 0.12462 0.0332 0.0166 0.13293-0.50678 0.49016-0.83079 0.35724-0.0831 0.37386-0.0748 0.84741-0.42371 0.49016-0.54832 0.13293-0.29077-0.0332-0.25755 0.0249-0.11631 0.4154-0.0581 0.45693 0.0914 0.47355 0.15785 0.43202-0.0332 0.4237-0.39878 0.69786-0.0914 0.10801-1.2046-0.13293-0.47355 0.22431-0.2077 0.29078-0.39047 0.92218-0.2077 0.81418-0.0415 0.88064 0.0831 0.73109 8e-3 0.70617-0.23262 0.63141-0.39047 0.28247-0.44863-0.22432-0.4154 0.13293-0.14123 0.41539-0.2077 0.32401-0.59817 0.14124-0.13292 0.29077 0.0166 0.43202 0.15785 0.36554 0.47355 0.42371 0.0831 0.35724 0.0499 0.62309-0.9388 0.56494-0.98033 0.35724-0.53171-0.0249-0.43201-0.35724-0.0498-0.3157-0.108-0.29078-0.27416-0.14123-0.28247 0.0166-0.108-0.65633-0.09969-1.3542 0.23262-0.55663-0.29078-0.24093-0.3157-0.0914-0.50678 0.10801-0.49017-0.11632-0.19108-0.49016-0.04985-0.57325 0.108-0.28247 0.2077-0.13292 0.108-0.33232 0.08308-0.38217-0.82248-0.5317-0.91387-0.24924-0.97203-8e-3 -0.34893 0.0748-0.30739 0.71448-1.7114 0.29907-0.95541-0.34062-0.44863-0.49848-0.80587-0.44863-0.35724-0.63971-0.02492-0.43201-0.14954-0.33232-0.93049-0.51509-0.34062-0.0831-0.72279 0.13293-0.25754-0.99695-0.54002-0.58986-0.60648 0.40709-0.37386-0.12462-0.35724-0.24093-0.11631-0.35724 0.03323-0.46524 0.07477-0.25755-0.0083-0.26585-0.14124-0.0914-0.14123 0.0665-0.30739-8e-3 -0.29078-0.29908-0.19108-0.34893-0.14954-0.4154-0.45694-0.24924-0.22431-0.23262-0.19939-0.29077-0.05815-0.42371v-0.44863l0.09969-0.39878 0.01662-0.20769 0.04154-0.19939 0.26585-0.78926-0.01662-0.8391-0.16616-0.39878-0.34893-0.62309 0.17447-0.12462h0.22431v-0.40709l-0.06646-0.49847-0.09969-0.47355-0.29078-0.80587-0.03323-0.76433 0.03323-0.29078 0.0083-0.30739 0.05816-0.12462 0.13293 0.0166 0.78094-0.24924 0.15785-0.108 0.08308-0.2077-0.18277-0.68125-0.24924-0.23262 0.80587-1.0385-0.03323-0.87233 0.16616-0.79756 0.45694 0.15785 0.50678 0.29908 0.51509-0.0665 0.50678-0.19939 0.80587-0.75602 0.66463-1.0551 1.1963-0.70618 0.61479-0.19108 0.24093-0.22431 0.19108-0.34894 0.25754-0.3157-0.05815-0.39878-0.25755-0.33231-0.30739-0.15785-0.62309-0.15785-0.51509-0.50679-0.13293-0.49847-0.0083-0.54832 0.19108-0.26586 1.5203 0.0332 0.24924-0.0415 0.2077-0.88894 0.16616-0.45694 0.21601-0.38216 0.29078-0.13293 0.3157-8e-3z" fill="#88a4bc"/>
  <rect class="sm_location_2" x="92.066" y="127.52" width="2.0936" height="2.0936" r="0" rx="0" ry="0" fill="#f09" opacity=".8"/>
 </g>
</svg>
