<?xml version="1.0" encoding="UTF-8"?>
<svg width="24.275mm" height="27.631mm" version="1.1" viewBox="0 0 24.275 27.631" xmlns="http://www.w3.org/2000/svg" xmlns:cc="http://creativecommons.org/ns#" xmlns:dc="http://purl.org/dc/elements/1.1/" xmlns:rdf="http://www.w3.org/1999/02/22-rdf-syntax-ns#">
 <metadata>
  <rdf:RDF>
   <cc:Work rdf:about="">
    <dc:format>image/svg+xml</dc:format>
    <dc:type rdf:resource="http://purl.org/dc/dcmitype/StillImage"/>
    <dc:title/>
   </cc:Work>
  </rdf:RDF>
 </metadata>
 <g transform="translate(-95.963 -107.89)" stroke-width=".26458">
  <path class="sm_state_POL3142" d="m119.33 121.85-0.31571-0.0997-0.3157 8e-3 -0.29077 0.13292-0.21601 0.38217-0.16616 0.45693-0.2077 0.88895-0.24923 0.0415-1.5204-0.0332-0.19108 0.26585 8e-3 0.54833 0.13292 0.49847 0.51509 0.50678 0.6231 0.15785 0.30739 0.15786 0.25755 0.33231 0.0582 0.39878-0.25755 0.3157-0.19108 0.34894-0.24093 0.22431-0.61479 0.19108-1.1963 0.70617-0.66463 1.0551-0.80587 0.75602-0.50678 0.19939-0.51509 0.0665-0.50679-0.29909-0.45693-0.15785 0.14954-0.64801-0.216-0.68125-0.4154-0.0914-0.44863 0.0665-0.43201 0.34062-0.74771 0.95541-0.4154 0.3074-1.7031-8e-3 -1.404 0.48185-0.47355 0.0249 0.16616 0.22432 0.22431 0.0415-0.30739 0.59817-0.51509 0.58986-0.43201 0.0665-1.3791-0.45694-0.80586 0.44863-0.53171 1.1548-0.64802 0.91389-0.41539 0.17447-0.70617 0.11631-0.17447 0.27416-0.2077 0.7311-0.48186-0.54832-0.49017-0.19109-0.24093-0.33231-0.15785-0.0748-0.08308-0.0831-0.28247-0.55663-0.13293-0.14955-0.88064-0.65632-0.22431-0.11631-0.26585-0.32401-0.16616-0.0748-0.18277-8e-3 -0.17447-0.0582-0.14954-0.11631-0.09139-0.19108 0.21601-0.19108 0.09139-0.16616 0.03323-0.25754-0.01662-0.17447-0.108-0.48186-0.04985-0.14123v-0.0831l0.40709-0.29909 0.49848-0.26585 0.49017-0.39048 0.25755-0.26585 0.108-0.24924 0.02492-0.11631 0.24924-0.78094-0.01662-0.19939-0.04985-0.19939-0.03323-0.22431 0.02492-0.18278 0.05815-0.16616 0.08308-0.12462 0.08308-0.0499 0.06646-0.0831 0.2077-0.43201-0.108-0.0997-0.02492-0.0748-0.13293-0.108-0.04985-0.0914-0.02492-0.13293-0.01662-0.36554-0.23262-1.0717-0.08308-0.72278-0.17447-0.29078-0.08308-0.29078-0.19939-0.3157-0.06646-0.28247v-0.30739l0.01662-0.51509-0.01662-0.13293-0.16616-0.54832-0.12462-0.27416 0.03323-0.21601-0.01662-0.39047 0.08308-8e-3 0.14954-0.0665 0.108-0.0997 0.01662-0.11631-0.14954-0.0997 0.08308-0.0499v-0.0997l-0.08308-0.0415 0.04985-0.108 0.07477 0.0748 0.22431 0.13292 0.09139 0.27417 0.11631 0.0914 0.23262 0.108 0.16616 0.17446 0.09139 0.0748 0.35724 0.0665 0.44863 0.15785 0.14954 0.12462 0.13293 0.18278 0.26585 0.5234 0.0997 0.12461 0.04154-0.0415 0.0083-0.22431 0.04154-0.13293 0.06646-0.0831 0.11631-0.0914v-0.19153l-0.0914-0.0249-0.20769-0.0166-0.09969-0.0499-0.25754-0.62309 0.05815-0.3074 0.19939-0.60647 0.09969 0.0831 0.16616-0.0831h0.13293l-0.0581-0.35724 0.0332-0.28247 0.0499-0.24924 0.0332-0.26585h-0.0582l-0.0249 0.16615-0.0582 0.11632-0.19939 0.19939-0.08308 0.0249-0.09139-0.12462 0.17447-0.19109-0.11631-0.23262-0.19939-0.11631-0.91387-0.0914-0.13293-0.14954 0.108-0.27416-0.04985-0.0914-0.08308 0.14124-0.06646 0.0166-0.16616-0.0665-0.07477 0.0332-0.18277 0.24924 0.24924 0.0499 0.13293 0.0581 0.07477 0.0914-0.01662 0.17447-0.09139 0.12461-0.09969 0.0415-0.07477-0.0498-0.23262 0.14124-0.22431 0.0499v0.0914l0.108 0.0499-0.108 0.0498-0.08308-8e-3 -0.13293-0.0748-0.09139-0.0166-0.14124-0.0914-0.39878-0.57325-0.2077-0.0914-0.06646-0.21601-0.14954-0.18277 0.14954-0.0665 0.14124-0.38216 0.13293 0.0665 0.09139 0.0748 0.25754 0.0914 0.81418 0.0748 0.33232-0.0748 0.3157-0.16616 0.59817-0.44032 2.185-0.98033 1.8942-0.49848 2.3013-0.97202 1.4871-0.39878 1.6367-0.44032 1.6034-0.7311 1.3293-0.16616 0.92218-0.30739-0.108 0.0997-0.40709 0.19109 0.17446 0.12462 0.7311-0.12462-0.0581-0.0914v-0.108h0.39878l-0.0581-0.0914 0.0166-0.23262-0.19109-8e-3 -0.44862 0.14123 0.28247-0.14123 0.34062-0.22432 0.51509-0.60647-0.0997 0.216-0.19108 0.19108 8e-3 0.0831 0.14954-0.0332 0.13293-0.0581 0.108-0.13293 0.29078-0.14123 0.108-0.12462-0.0997-0.2077h-0.15785l-0.19939 0.2077 0.34893-0.60648 0.96372-1.2379v0.0914l-0.0498 0.13292 0.0831 0.0415 0.14124-0.0498 0.0997-0.12461 0.0581-0.19109-0.0499-0.0581-0.10801 0.0415-0.1246 0.11631 0.16616-0.34062 0.29077-0.29078 0.56494-0.34893 1.728-0.25755 0.0581-0.0249 0.58986 1.1963 0.68125 0.98864 0.25755 0.5234 0.0581 0.68125-0.0831 0.38216-0.22431 0.22432-0.0582 0.25754 0.0914 0.19939 0.15785 0.22431 0.0332 0.34894-0.13293 0.2077-1.1548 0.28246 0.5234 1.6034 0.0665 0.78095v0.77263l0.35724 0.25755 0.19939 0.24093 0.30739 0.6314 0.23262 0.2077 0.19108 0.27416 0.15785 0.34062-0.45693-0.0665-0.4154 0.19939 8e-3 0.27416 0.16616 0.0831 0.14124 0.23263 0.0997 0.29908-0.24924 0.44032-0.34893 0.34893z" fill="#88a4bc"/>
  <rect class="sm_location_14" x="98.687" y="123.14" width="2.0936" height="2.0936" r="0" rx="0" ry="0" fill="#f09" opacity=".8"/>
 </g>
</svg>
